<?xml version="1.0" encoding="UTF-8"?>
<svg enable-background="new 0 0 411.587 364.683" viewBox="0 0 411.587 364.683" xmlns="http://www.w3.org/2000/svg">
 <defs>
  <radialGradient id="a" cx="207.77" cy="182.21" r="184.07" gradientUnits="userSpaceOnUse">
   <stop stop-color="#ffe600" offset="0"/>
   <stop stop-color="#f00" offset="1"/>
  </radialGradient>
 </defs>
 <path d="m339.58 28.815c13.135 15.542 28.973 22.922 33.623 43.451l28.758 126.93c6.416 28.317 16.425 53.516 2.922 80.482-13.207 26.376-35.195 40.196-60.214 54.239-52.628 29.539-119.08 35.794-178.91 27.247-29.063-4.152-58.539-12.828-84.743-25.929-13.526-6.762-27.464-18.449-39.325-27.935-11.048-8.834-24.493-23.665-31.159-36.097-6.929-12.922-11.928-23.786-10.177-38.984 1.481-12.855 4.747-29.484 8.921-41.999 9.156-27.449 17.787-55.858 23.482-84.312 5.838-29.161 14.908-61.76 43.923-76.244 13.886-6.932 27.232-13.907 42.404-17.797 12.864-3.298 28.57-8.474 41.767-8.474 14.688 1e-3 29.345-3.391 44.1-3.391 15.088 0 29.839 1.695 44.734 1.695 31.481 0 62.096 13.23 89.895 27.12" fill-rule="evenodd"/>
 <path d="m400.64,247.473c.603-13.563-4.301-28.25-6.962-41.563-2.815-14.078-3.932-28.133-6.784-42.375-2.883-14.392-5.59-28.953-9.152-43.189-3.148-12.585-4.5-29.343-10.177-40.681-6.188-12.357-8.443-24.406-19.827-33.885-13.278-11.056-26.635-17.467-42.93-22.897-29.025-9.672-60.978-14.409-91.419-14.409-33.621,0-64.436.593-96.004,10.173-24.981,7.581-59.46,25.825-66.414,53.604-3.608,14.415-9.918,27.786-13.569,42.375-3.439,13.743-6.969,27.292-9.912,41.316-5.973,28.46-13.569,57.403-13.569,86.631 0,4.724 1.905,8.91 3.392,13.375 0-7.263-.921-14.965.849-22.037 1.565-6.258 4.24-15.236 4.24-21.657 0-14.755 10.178-28.479 10.178-43.128 0-3.713 2.724-6.397 3.392-9.794 .584-2.97-.718-6.323.251-9.229 2.438-7.311 3.412-14.599 5.51-21.938 1.894-6.625 3.164-12.178 4.269-18.803 .693-4.154-1.155-3.367.996-7.66 2.358-4.708 2.543-6.63 2.543-12.503 0-3.308 5.088.219 5.088,3.213 0,4.021.978,9.03-.849,12.681-2.453,4.903-7.789,9.918-9.329,13.559-2.067,4.886-.727,15.352-1.695,20.339-1.322,6.813-3.394,14.348-3.394,21.628 0,14.391-5.062,29.105-7.883,43.19-2.577,12.865-9.078,27.718-9.078,40.649 0,4.012 2.483,7.229 1.697,11.49-.744,4.031-3.783,6.163-3.392,10.169 .307,3.144 6.778,12.919 8.48,15.255 7.357,10.1 17.829,18.444 27.987,25.003l-.849-1.272c4.525,9.637 24.509,19.025 33.922,23.729 13.161,6.577 27.083,12.191 41.522,15.081 27.347,5.474 54.491,12.04 82.741,12.04 28.436,0 56.728-4.124 84.361-11.018 11.981-2.988 31.047-9.833 39.858-18.645 7.083-7.083 14.624-24.879 24.595-26.273 .953,5.778-2.646,8.908-5.089,13.563 12.821,2.114 25.785-16.845 32.227-25.428 9.103-12.128 13.192-25.61 10.179-40.679" fill="url(#a)" fill-rule="evenodd"/>
 <path d="m290.39,28.815c-.515,1.516-4.178,3.414-5.089,0-.872-3.268 4.723-4.452 5.089,0" fill-rule="evenodd"/>
 <path d="m302.264,33.902c-.182,1.538-.115,2.439-1.696,3.389-2.479-1.242-6.784-1.682-6.784-5.085 0-6.453 7.428-2.735 8.48,1.696" fill-rule="evenodd"/>
 <path d="m113.99 32.205c-1.099 3.212-5.944 4.162-10.177 3.39 0.154-6.553 6.451-9.253 10.177-3.39" fill-rule="evenodd"/>
 <path d="m320.922,38.986c.901,2.556 2.035,3.981 1.694,6.781h1.697c.629-1.997 3.683-3.105 5.936-.848 1.128,1.129-.947,5.285-.847,7.627 .275,6.396 2.474,11.981 1.694,18.645-.329,2.812.256,7.313 0,10.168-.332,3.694-2.802,8.62-3.831,2.45-1.459-8.746-1.489-17.402-2.952-26.179h-1.697c.919,7.149-6.326,14.063-1.694,20.339-5.088-1.628-6.969-26.155-8.364-31.729-.571-2.285-6.902,3.699-6.902-5.56 0-8.882 10.529-4.334 15.266-1.694" fill-rule="evenodd"/>
 <path d="m98.728,38.986c-.801,4.568-3.195,3.588-5.936.847-1.756-1.755 4.441-4.301 5.936-.847" fill-rule="evenodd"/>
 <path d="m108.9 50.849c-1.146 11.444-1.697 22.401-1.697 33.902 0 3.822 1.871 13.386-0.847 16.103-3.666 3.665-4.242-6.241-4.242-8.688 0-10.212 1.697-20.531 1.697-30.51 0-6.52-3.106-22.103 3.392-24.365 2.098 4.39 1.697 8.845 1.697 13.558" fill-rule="evenodd"/>
 <path d="m88.55,44.07c-.135,5.983-5.861,7.379-8.48,11.865-3.621,6.2-2.514,15.611-2.952,23.04-.934,15.856 17.992,19.222 30.091,25.268 12.545,6.269 28.914,8.334 42.403,11.018 15.485,3.081 29.848,6.781 46.053,6.781 32.151,0 62.569-1.96 93.687-10.845 7.584-2.166 15.646-3.584 23.088-6.107 8.852-3 11.685-6.589 17.778-12.679 1.067-1.067 7.741-.742 7.652-2.871-.155-3.722-.311-7.444-.466-11.167-.406-9.739-.813-19.478-1.219-29.217 8.917.201 19.485,18.676 16.114,25.425-3.35,6.704-2.44,11.76-8.513,17.83-3.758,3.755-12.665,12.679-17.778,12.679-6.136,0-14.688,5.936-20.354,8.476-6.65,2.981-13.696,4.093-20.798,5.513-17.271,3.453-34.155,6.409-51.715,7.87-31.885,2.651-65.49-.553-96.856-6.25-24.999-4.541-60.51-14.039-71.48-39.339-4.513-10.408-3.265-17.12 3.486-26.116 4.311-5.744 12.397-12.357 20.259-11.174" fill-rule="evenodd"/>
 <path d="m95.336 45.767c0 15.454-1.686 30.414-3.392 45.765h-1.697c1.22-8.529 1.697-16.505 1.697-25.112 0-5.089-2.952-21.539 3.392-20.653" fill-rule="evenodd"/>
 <path d="m371.805,132.211c-4.507,4.852 5.019,7.813 0,13.561 6.004,1.142.817,5.124-1.697,8.474 2.659-.705 5.042-.205 6.786,1.697-1.458,1.346-.917,2.174-1.697,3.39 7.481,1.544.42,12.238-3.392,15.255h10.177c-2.162,12.962-3.392,25.841-3.392,38.985 4.229-7.229 9.862-.18 3.392,5.085 1.813.919 2.862,2.796 5.089,3.39-1.484,2.657-2.59,5.538-3.394,8.474 6.3-1.643 5.089,2.994 5.089,7.629 0,7.271 4.543,11.166 5.088,17.799 .668,8.13-2.972,17.933-8.48,23.729-1.408,1.481-3.907,2.012-5.088,3.39-1.383,1.614-.924,4.313-2.544,5.933-3.084,3.085-5.027,6.097-9.328,2.544 1.706-2.275 3.38-4.507 5.088-6.781l-3.394-1.695c1.932-3.855 4.404-7.689 5.089-11.863-2.866,1.079-4.839,1.271-6.783,0 4.125-5.505 8.646-10.805 11.872-16.952-5.469-.428-8.101,5.515-13.569,5.087 4.417-3.496 7.863-10.192 10.178-15.255-4.068.789-9.293,10.063-11.873,1.692 4.84-1.403 6.409-7.725 8.48-11.863-2.972,1.196-10.177,9.225-10.177,2.542 0-2.419 3.514-7.206 5.089-7.626-10.28-3.935-1.012-12.484 3.392-18.645-2.917.817-18.565,13.378-11.874-.002 5.168-10.332 3.394-24.305 3.394-35.595-.212.21-4.907,3.201-5.089,1.694-.544-4.526 3.472-6.17 5.089-10.171-7.185,5.288-3.938-2.239-5.937-4.236-4.344-4.343 3.083-9.861 5.937-12.713-3.058-.482-5.893.075-8.48,1.695 2.593-4.944 10.912-19.844 16.959-18.648" fill-rule="evenodd"/>
 <path d="m359.93 105.09c-5.603 8.595-6.361-6.016 0 0" fill-rule="evenodd"/>
 <path d="m351.45 110.18c0.681 6.553-17.811 12.544-23.747 13.558 5.195-4.556 16.255-15.543 23.747-13.558" fill-rule="evenodd"/>
 <path d="m361.63 115.26c-8.31 8.139-3.868-11.558 0 0" fill-rule="evenodd"/>
 <path d="m317.529,128.821c-1.56,2.51-3.61,2.604-3.393-1.697 1.718-.252 2.259.527 3.393,1.697" fill-rule="evenodd"/>
 <path d="m353.15 194.93c0 16.977 1.848 34.509 5.938 50.849 1.872 7.479 12.489 46.753 2.543 49.156 0-17.865-1.788-33.631-5.087-50.85-1.37-7.147-11.567-46.455-3.394-49.155" fill-rule="evenodd"/>
 <path d="m78.375 122.04v3.39l-10.177-5.086c-1.394 6.065-6.674 9.681-8.48 15.255-1.259 3.884-1.021 10.184-1.873 14.441l-6.431 32.139c-3.87 19.353-10.354 40.552-10.354 60.205 0-26.159 6.364-50.006 10.617-75.522 1.97-11.821 4.821-23.699 8.041-34.653 1.214-4.132 1.488-15.999 5.087-17.797 3.71-1.854 9.724 6.025 13.57 7.628" fill-rule="evenodd"/>
 <path d="m88.55,130.516c-3.054,2.138-3.699.068-3.392-3.392 2.76-.13 2.812,1.302 3.392,3.392" fill-rule="evenodd"/>
 <path d="m39.362,255.948c-.49,6.939-4.19,2.007-3.392-3.392 2.741-.129 2.84,1.289 3.392,3.392" fill-rule="evenodd"/>
</svg>
