<?xml version="1.0" encoding="UTF-8"?>
<svg version="1.1" viewBox="0 0 693.75214 595.41565" xmlns="http://www.w3.org/2000/svg" xmlns:xlink="http://www.w3.org/1999/xlink">
 <defs>
  <filter id="m">
   <feGaussianBlur stdDeviation="2.74014"/>
  </filter>
  <linearGradient id="c" x1="26.668" x2="35.948" y1="20.673" y2="29.171" gradientTransform="matrix(1.2799 0 0 2.1668 -247.79 -44.902)" gradientUnits="userSpaceOnUse">
   <stop stop-color="#999" offset="0"/>
   <stop stop-color="#aab7d2" offset="1"/>
  </linearGradient>
  <linearGradient id="b">
   <stop stop-color="#f5e0a1" offset="0"/>
   <stop stop-color="#00000f" offset="1"/>
  </linearGradient>
  <filter id="j" x="-.05253" y="-.13713" width="1.1051" height="1.2742" color-interpolation-filters="sRGB"/>
  <filter id="d" color-interpolation-filters="sRGB"/>
  <filter id="l" x="-.06828" y="-.78396" width="1.1366" height="2.5679" color-interpolation-filters="sRGB"/>
  <filter id="k" x="-.0206" y="-.78396" width="1.0412" height="2.5679" color-interpolation-filters="sRGB"/>
  <filter id="o">
   <feGaussianBlur stdDeviation="0.39167351"/>
  </filter>
  <filter id="n">
   <feGaussianBlur stdDeviation="0.26445425"/>
  </filter>
  <linearGradient id="i" x1="191.66" x2="243.81" y1="94.195" y2="94.195" gradientUnits="userSpaceOnUse" xlink:href="#b"/>
  <linearGradient id="a" x1="-237.74" x2="-188.57" y1="6.3865" y2="6.3865" gradientUnits="userSpaceOnUse" xlink:href="#c"/>
  <linearGradient id="h" x1="-237.74" x2="-188.57" y1="6.3865" y2="6.3865" gradientTransform="matrix(.81658 0 0 .79773 384.1 84.186)" gradientUnits="userSpaceOnUse" xlink:href="#c"/>
  <linearGradient id="g" x1="-237.23" x2="-223.43" y1="47.646" y2="47.646" gradientTransform="translate(422 84.413)" gradientUnits="userSpaceOnUse" xlink:href="#b"/>
  <linearGradient id="f" x1="-240.76" x2="-231.48" y1="-28.367" y2="-28.367" gradientTransform="translate(422 84.413)" gradientUnits="userSpaceOnUse">
   <stop stop-color="#f5e0a1" offset="0"/>
   <stop stop-color="#21150f" offset="1"/>
  </linearGradient>
  <linearGradient id="e" x1="-123.99" x2="-67.654" y1="87.708" y2="87.708" gradientTransform="translate(304.17 2.7334)" gradientUnits="userSpaceOnUse">
   <stop stop-color="#f5e0a1" offset="0"/>
   <stop stop-color="#21150f" offset="1"/>
  </linearGradient>
 </defs>
 <g transform="matrix(4.0905 0 0 4.0905 -1150 -1045.7)" filter="url(#m)" opacity=".86578">
  <path d="m344.82 371.46c0 8.1856-5.7776 10.536-17.321 10.893-11.549 0.35714-18.036-2.7072-18.036-10.893s7.915-14.821 17.679-14.821 17.679 6.6358 17.679 14.821z" stroke="#000" stroke-linecap="round" stroke-linejoin="round" stroke-width=".3"/>
  <path d="m381.61 370.74c0 8.1856-5.7776 10.536-17.321 10.893-11.549 0.35714-18.036-2.7072-18.036-10.893s7.915-14.821 17.679-14.821 17.679 6.6358 17.679 14.821z" stroke="#000" stroke-linecap="round" stroke-linejoin="round" stroke-width=".3"/>
  <path d="m311.47 267.81c-0.27436 7e-3 -0.54374 0.0315-0.8125 0.0625-10.73 9.5674-11.993 27.822-9.375 41.719-2.8018 5.6834-4.2283 11.925-3.9375 18.406 1.0972 24.453 26.152 43.182 55.969 41.844s53.097-22.235 52-46.688c-0.28327-6.3129-1.6918-12.231-4.3438-17.531 24.907-4.1115 19.738 7.0529 30.156 7.9688 4.8806-0.65245 10.603-0.40216 8.3438-8.8438-4.4146-10.302-23.984-7.4247-42.531-5.4375-2.2126-2.7983-4.8542-5.3566-8.0312-7.5938 0.10854-7.8344-3.5993-17.441-8.1562-23.25-1.0362-0.31188-2.1602-0.46591-3.3438-0.4375-6.7713 0.16252-15.765 7.5096-24.938 13.219-1.0357-2e-3 -2.0768 0.0155-3.125 0.0625-4.524 0.20299-8.9018 0.85867-13.062 1.9062-8.9669-8.0818-17.791-15.591-24.812-15.406z"/>
  <g transform="matrix(.98537 .08121 -.07916 1.011 148.28 -8.5496)" stroke="#000">
   <path d="m215.18 315.22c4.346-25.655 19.722-27.217 42.143-13.393-6.0805 25.716-25.104 35.128-40 14.643l-2.1429-1.25z"/>
   <path transform="matrix(1.0601 0 0 1.1069 -16.278 -35.909)" d="m252.03 313.44c0 8.0894-7.01 14.647-15.657 14.647s-15.657-6.5578-15.657-14.647 7.01-14.647 15.657-14.647 15.657 6.5578 15.657 14.647z" fill-rule="evenodd"/>
   <path transform="matrix(.89446 0 0 .92986 21.963 18.234)" d="m252.03 313.44c0 8.0894-7.01 14.647-15.657 14.647s-15.657-6.5578-15.657-14.647 7.01-14.647 15.657-14.647 15.657 6.5578 15.657 14.647z" fill-rule="evenodd"/>
   <path transform="matrix(.77975 0 0 .75446 49.532 71.061)" d="m252.03 313.44c0 8.0894-7.01 14.647-15.657 14.647s-15.657-6.5578-15.657-14.647 7.01-14.647 15.657-14.647 15.657 6.5578 15.657 14.647z" fill-rule="evenodd"/>
   <path transform="translate(-1.2627 45.747)" d="m248.24 259.14c0 3.3474-2.8832 6.0609-6.4397 6.0609s-6.4397-2.7136-6.4397-6.0609 2.8832-6.0609 6.4397-6.0609 6.4397 2.7136 6.4397 6.0609z"/>
   <path transform="matrix(.51143 0 0 .43923 120.23 205.43)" d="m248.24 259.14c0 3.3474-2.8832 6.0609-6.4397 6.0609s-6.4397-2.7136-6.4397-6.0609 2.8832-6.0609 6.4397-6.0609 6.4397 2.7136 6.4397 6.0609z"/>
  </g>
  <g transform="matrix(-.86479 -.10102 -.09827 .88899 548.19 68.99)" stroke="#000">
   <path d="m215.18 315.22c1.3155-33.736 32.349-22.167 37.597-13.14-6.0805 25.716-20.558 34.875-35.454 14.39l-2.1429-1.25z"/>
   <path transform="matrix(1.0601 0 0 1.1069 -16.278 -35.909)" d="m252.03 313.44c0 8.0894-7.01 14.647-15.657 14.647s-15.657-6.5578-15.657-14.647 7.01-14.647 15.657-14.647 15.657 6.5578 15.657 14.647z" fill-rule="evenodd"/>
   <path transform="matrix(.89446 0 0 .92986 23.479 18.234)" d="m252.03 313.44c0 8.0894-7.01 14.647-15.657 14.647s-15.657-6.5578-15.657-14.647 7.01-14.647 15.657-14.647 15.657 6.5578 15.657 14.647z" fill-rule="evenodd"/>
   <path transform="matrix(.77975 0 0 .75446 49.532 71.061)" d="m252.03 313.44c0 8.0894-7.01 14.647-15.657 14.647s-15.657-6.5578-15.657-14.647 7.01-14.647 15.657-14.647 15.657 6.5578 15.657 14.647z" fill-rule="evenodd"/>
   <path transform="translate(-14.395 46.253)" d="m248.24 259.14c0 3.3474-2.8832 6.0609-6.4397 6.0609s-6.4397-2.7136-6.4397-6.0609 2.8832-6.0609 6.4397-6.0609 6.4397 2.7136 6.4397 6.0609z"/>
   <path transform="matrix(.51143 0 0 .43923 101.29 205.68)" d="m248.24 259.14c0 3.3474-2.8832 6.0609-6.4397 6.0609s-6.4397-2.7136-6.4397-6.0609 2.8832-6.0609 6.4397-6.0609 6.4397 2.7136 6.4397 6.0609z"/>
  </g>
  <path d="m323.21 286.08-13.571 10.714c-3.8931 2.4204-6.6461-0.10447-6.5115-2.5 0.78194-5.7041 0.22978-12.434 7.2258-22.857 5.1 1.3349 9.0838 4.1581 13.214 6.7857 3.0394 2.2866 3.0009 4.8972-0.35715 7.8571z" stroke="#000"/>
  <path d="m363.19 291.29c4.83 5.1243 8.4744 9.534 13.636 13.405 3.987 3.1245 7.2958 0.6577 7.4249-2.0021-0.19823-6.3871 1.9417-14.256-5.2794-26.07-7.5112 0.50144-11.319 2.2704-15.518 5.448-3.595 2.1704-3.6018 5.5615-0.26339 9.2193z" stroke="#000" stroke-width="1.106"/>
  <path d="m327.14 331.65 11.429 0.35715-7.1429 4.6428-4.2857-5z" stroke="#000" stroke-linecap="round" stroke-linejoin="round" stroke-width=".3"/>
  <path d="m324.64 338.79c3.1074 2.0116 8.3377 1.9004 14.286 1.0714-3.8923 2.0033-4.3566 13.311-14.286-1.0714z" stroke="#000"/>
  <path d="m330.68 340.98c1.7837 0.59693 3.8842 0.71863 5.9978 0.82075-2.0406 0.13193-4.7036 6.3627-5.9978-0.82075z" stroke="#000"/>
  <path d="m366.07 380.76c0 8.1866-5.6614 10.537-16.973 10.894-11.317 0.35719-17.673-2.7075-17.673-10.894s7.7557-14.823 17.323-14.823 17.323 6.6366 17.323 14.823z" stroke="#000" stroke-linecap="round" stroke-linejoin="round" stroke-width=".29698"/>
  <path d="m397.69 374.56c0 7.7369-5.4303 9.9582-16.28 10.296s-16.951-2.5588-16.951-10.296 7.4391-14.009 16.616-14.009 16.616 6.272 16.616 14.009z" stroke="#000" stroke-linecap="round" stroke-linejoin="round" stroke-width=".28276"/>
  <g transform="translate(121.07 58.929)" stroke="#000">
   <path d="m192.86 240.93c2.8532-0.23157 5.1286 0.4999 7.5 1.0714-2.1268-1.8501-3.5984-6.3207-7.5-1.0714z"/>
   <path d="m232.52 239.44c3.8518-0.1225 7.7264-0.28052 10.102 1.894-1.3061-4.0886-3.6224-6.4827-10.102-1.894z"/>
  </g>
  <g transform="translate(124.64 60.357)" stroke="#000" stroke-linecap="round" stroke-linejoin="round">
   <path d="m180.54 298.34c2.325-5.8216 6.991-11.53 13.839-16.875-6.2388 4.6246-10.694 10.347-13.839 16.875z" stroke-width=".8"/>
   <path d="m173.64 292.89c4.0405-5.5146 10.592-10.316 19.418-14.181-7.9766 3.2646-14.303 8.1336-19.418 14.181z" stroke-width=".878"/>
   <path d="m169.1 287.06c5.1135-4.5375 12.531-7.8474 21.974-9.7624-8.486 1.5073-15.698 4.9311-21.974 9.7624z" stroke-width=".878"/>
   <g transform="matrix(-1 0 0 1 417.25 .71904)">
    <path d="m180.54 298.34c2.325-5.8216 6.991-11.53 13.839-16.875-6.2388 4.6246-10.694 10.347-13.839 16.875z" stroke-width=".8"/>
    <path d="m173.64 292.89c4.0405-5.5146 10.592-10.316 19.418-14.181-7.9766 3.2646-14.303 8.1336-19.418 14.181z" stroke-width=".878"/>
    <path d="m169.1 287.06c5.1135-4.5375 12.531-7.8474 21.974-9.7624-8.486 1.5073-15.698 4.9311-21.974 9.7624z" stroke-width=".878"/>
   </g>
  </g>
  <g transform="translate(122.53 60.441)" stroke="#000" stroke-linecap="round" stroke-linejoin="round">
   <path d="m193.3 307.81c-1.3106 3.4064-2.6665 7.3552-3.75 8.0357 0.39238-2.9236 1.6912-5.5882 3.75-8.0357z"/>
   <path d="m197.41 319.51c1.5874 0.90332 2.9291 0.82365 4.2857 0.80358 0.066-2.7832 0.28937-4.8585-0.0893-9.6429-1.8962 1.4543-2.9829 5.3371-4.1964 8.8393h1e-5z"/>
  </g>
  <g transform="matrix(.99253 -.12202 .12202 .99253 107.81 96.673)" stroke="#000" stroke-linecap="round" stroke-linejoin="round">
   <path d="m193.3 307.81c-1.3106 3.4064-2.6665 7.3552-3.75 8.0357 0.39238-2.9236 1.6912-5.5882 3.75-8.0357z"/>
   <path d="m197.41 319.51c1.5874 0.90332 2.9291 0.82365 4.2857 0.80358 0.066-2.7832 0.28937-4.8585-0.0893-9.6429-1.8962 1.4543-2.9829 5.3371-4.1964 8.8393h1e-5z"/>
  </g>
  <g transform="matrix(.97994 -.19927 .19927 .97994 120.65 108.23)" stroke="#000" stroke-linecap="round" stroke-linejoin="round">
   <path d="m193.3 307.81c-1.3106 3.4064-2.6665 7.3552-3.75 8.0357 0.39238-2.9236 1.6912-5.5882 3.75-8.0357z"/>
   <path d="m197.41 319.51c1.5874 0.90332 2.9291 0.82365 4.2857 0.80358 0.066-2.7832 0.28937-4.8585-0.0893-9.6429-1.8962 1.4543-2.9829 5.3371-4.1964 8.8393h1e-5z"/>
  </g>
 </g>
 <g transform="matrix(4.0905 0 0 4.0905 -1160.5 -1057.1)">
  <path d="m344.82 371.46c0 8.1856-5.7776 10.536-17.321 10.893-11.549 0.35714-18.036-2.7072-18.036-10.893s7.915-14.821 17.679-14.821 17.679 6.6358 17.679 14.821z" fill="#999" stroke="#999" stroke-linecap="round" stroke-linejoin="round" stroke-width=".3"/>
  <path d="m381.61 370.74c0 8.1856-5.7776 10.536-17.321 10.893-11.549 0.35714-18.036-2.7072-18.036-10.893s7.915-14.821 17.679-14.821 17.679 6.6358 17.679 14.821z" fill="#999" stroke="#999" stroke-linecap="round" stroke-linejoin="round" stroke-width=".3"/>
  <path d="m311.47 267.81c-0.27436 7e-3 -0.54374 0.0315-0.8125 0.0625-10.73 9.5674-11.993 27.822-9.375 41.719-2.8018 5.6834-4.2283 11.925-3.9375 18.406 1.0972 24.453 26.152 43.182 55.969 41.844s53.097-22.235 52-46.688c-0.28327-6.3129-1.6918-12.231-4.3438-17.531 24.907-4.1115 19.738 7.0529 30.156 7.9688 4.8806-0.65245 10.603-0.40216 8.3438-8.8438-4.4146-10.302-23.984-7.4247-42.531-5.4375-2.2126-2.7983-4.8542-5.3566-8.0312-7.5938 0.10854-7.8344-3.5993-17.441-8.1562-23.25-1.0362-0.31188-2.1602-0.46591-3.3438-0.4375-6.7713 0.16252-15.765 7.5096-24.938 13.219-1.0357-2e-3 -2.0768 0.0155-3.125 0.0625-4.524 0.20299-8.9018 0.85867-13.062 1.9062-8.9669-8.0818-17.791-15.591-24.812-15.406z" fill="#ccc"/>
  <g transform="matrix(.98537 .08121 -.07916 1.011 148.28 -8.5496)">
   <path d="m215.18 315.22c4.346-25.655 19.722-27.217 42.143-13.393-6.0805 25.716-25.104 35.128-40 14.643l-2.1429-1.25z" fill="#717171" stroke="#717171"/>
   <path transform="matrix(1.0601 0 0 1.1069 -16.278 -35.909)" d="m252.03 313.44c0 8.0894-7.01 14.647-15.657 14.647s-15.657-6.5578-15.657-14.647 7.01-14.647 15.657-14.647 15.657 6.5578 15.657 14.647z" fill="#f9f9f9" fill-rule="evenodd" stroke="#666"/>
   <path transform="matrix(.89446 0 0 .92986 21.963 18.234)" d="m252.03 313.44c0 8.0894-7.01 14.647-15.657 14.647s-15.657-6.5578-15.657-14.647 7.01-14.647 15.657-14.647 15.657 6.5578 15.657 14.647z" fill="#79c8fd" fill-rule="evenodd" stroke="#79c8fd"/>
   <path transform="matrix(.77975 0 0 .75446 49.532 71.061)" d="m252.03 313.44c0 8.0894-7.01 14.647-15.657 14.647s-15.657-6.5578-15.657-14.647 7.01-14.647 15.657-14.647 15.657 6.5578 15.657 14.647z" fill="#1a6d90" fill-rule="evenodd" stroke="#1a6d90"/>
   <path transform="translate(-1.2627 45.747)" d="m248.24 259.14c0 3.3474-2.8832 6.0609-6.4397 6.0609s-6.4397-2.7136-6.4397-6.0609 2.8832-6.0609 6.4397-6.0609 6.4397 2.7136 6.4397 6.0609z" fill="#fff" stroke="#fff"/>
   <path transform="matrix(.51143 0 0 .43923 120.23 205.43)" d="m248.24 259.14c0 3.3474-2.8832 6.0609-6.4397 6.0609s-6.4397-2.7136-6.4397-6.0609 2.8832-6.0609 6.4397-6.0609 6.4397 2.7136 6.4397 6.0609z" fill="#fff" stroke="#fff"/>
  </g>
  <g transform="matrix(-.86479 -.10102 -.09827 .88899 548.19 68.99)">
   <path d="m215.18 315.22c1.3155-33.736 32.349-22.167 37.597-13.14-6.0805 25.716-20.558 34.875-35.454 14.39l-2.1429-1.25z" fill="#717171" stroke="#717171"/>
   <path transform="matrix(1.0601 0 0 1.1069 -16.278 -35.909)" d="m252.03 313.44c0 8.0894-7.01 14.647-15.657 14.647s-15.657-6.5578-15.657-14.647 7.01-14.647 15.657-14.647 15.657 6.5578 15.657 14.647z" fill="#f9f9f9" fill-rule="evenodd" stroke="#666"/>
   <path transform="matrix(.89446 0 0 .92986 23.479 18.234)" d="m252.03 313.44c0 8.0894-7.01 14.647-15.657 14.647s-15.657-6.5578-15.657-14.647 7.01-14.647 15.657-14.647 15.657 6.5578 15.657 14.647z" fill="#79c8fd" fill-rule="evenodd" stroke="#79c8fd"/>
   <path transform="matrix(.77975 0 0 .75446 49.532 71.061)" d="m252.03 313.44c0 8.0894-7.01 14.647-15.657 14.647s-15.657-6.5578-15.657-14.647 7.01-14.647 15.657-14.647 15.657 6.5578 15.657 14.647z" fill="#1a6d90" fill-rule="evenodd" stroke="#1a6d90"/>
   <path transform="translate(-14.395 46.253)" d="m248.24 259.14c0 3.3474-2.8832 6.0609-6.4397 6.0609s-6.4397-2.7136-6.4397-6.0609 2.8832-6.0609 6.4397-6.0609 6.4397 2.7136 6.4397 6.0609z" fill="#fff" stroke="#fff"/>
   <path transform="matrix(.51143 0 0 .43923 101.29 205.68)" d="m248.24 259.14c0 3.3474-2.8832 6.0609-6.4397 6.0609s-6.4397-2.7136-6.4397-6.0609 2.8832-6.0609 6.4397-6.0609 6.4397 2.7136 6.4397 6.0609z" fill="#fff" stroke="#fff"/>
  </g>
  <path d="m323.21 286.08-13.571 10.714c-3.8931 2.4204-6.6461-0.10447-6.5115-2.5 0.78194-5.7041 0.22978-12.434 7.2258-22.857 5.1 1.3349 9.0838 4.1581 13.214 6.7857 3.0394 2.2866 3.0009 4.8972-0.35715 7.8571z" fill="#fdc7c8" stroke="#fdc7c8"/>
  <path d="m363.19 291.29c4.83 5.1243 8.4744 9.534 13.636 13.405 3.987 3.1245 7.2958 0.6577 7.4249-2.0021-0.19823-6.3871 1.9417-14.256-5.2794-26.07-7.5112 0.50144-11.319 2.2704-15.518 5.448-3.595 2.1704-3.6018 5.5615-0.26339 9.2193z" fill="#fdc7c8" stroke="#fdc7c8" stroke-width="1.106"/>
  <path d="m327.14 331.65 11.429 0.35715-7.1429 4.6428-4.2857-5z" fill="#fdc7c8" stroke="#fdc7c8" stroke-linecap="round" stroke-linejoin="round" stroke-width=".3"/>
  <path d="m324.64 338.79c3.1074 2.0116 8.3377 1.9004 14.286 1.0714-3.8923 2.0033-4.3566 13.311-14.286-1.0714z" fill="#4d4d4d" stroke="#4d4d4d"/>
  <path d="m330.68 340.98c1.7837 0.59693 3.8842 0.71863 5.9978 0.82075-2.0406 0.13193-4.7036 6.3627-5.9978-0.82075z" fill="#f5acb3" stroke="#f5acb3"/>
  <path d="m366.07 380.76c0 8.1866-5.6614 10.537-16.973 10.894-11.317 0.35719-17.673-2.7075-17.673-10.894s7.7557-14.823 17.323-14.823 17.323 6.6366 17.323 14.823z" fill="#ccc" stroke="#ccc" stroke-linecap="round" stroke-linejoin="round" stroke-width=".29698"/>
  <path d="m397.69 374.56c0 7.7369-5.4303 9.9582-16.28 10.296s-16.951-2.5588-16.951-10.296 7.4391-14.009 16.616-14.009 16.616 6.272 16.616 14.009z" fill="#ccc" stroke="#ccc" stroke-linecap="round" stroke-linejoin="round" stroke-width=".28276"/>
  <g transform="translate(121.07 58.929)" fill="#e3e1e0" stroke="#e3e1e0">
   <path d="m192.86 240.93c2.8532-0.23157 5.1286 0.4999 7.5 1.0714-2.1268-1.8501-3.5984-6.3207-7.5-1.0714z"/>
   <path d="m232.52 239.44c3.8518-0.1225 7.7264-0.28052 10.102 1.894-1.3061-4.0886-3.6224-6.4827-10.102-1.894z"/>
  </g>
  <g transform="translate(124.64 60.357)" fill="#dbdbdb" stroke="#dbdbdb" stroke-linecap="round" stroke-linejoin="round">
   <path d="m180.54 298.34c2.325-5.8216 6.991-11.53 13.839-16.875-6.2388 4.6246-10.694 10.347-13.839 16.875z" stroke-width=".8"/>
   <path d="m173.64 292.89c4.0405-5.5146 10.592-10.316 19.418-14.181-7.9766 3.2646-14.303 8.1336-19.418 14.181z" stroke-width=".878"/>
   <path d="m169.1 287.06c5.1135-4.5375 12.531-7.8474 21.974-9.7624-8.486 1.5073-15.698 4.9311-21.974 9.7624z" stroke-width=".878"/>
   <g transform="matrix(-1 0 0 1 417.25 .71904)">
    <path d="m180.54 298.34c2.325-5.8216 6.991-11.53 13.839-16.875-6.2388 4.6246-10.694 10.347-13.839 16.875z" stroke-width=".8"/>
    <path d="m173.64 292.89c4.0405-5.5146 10.592-10.316 19.418-14.181-7.9766 3.2646-14.303 8.1336-19.418 14.181z" stroke-width=".878"/>
    <path d="m169.1 287.06c5.1135-4.5375 12.531-7.8474 21.974-9.7624-8.486 1.5073-15.698 4.9311-21.974 9.7624z" stroke-width=".878"/>
   </g>
  </g>
  <g transform="translate(122.53 60.441)" fill="#666" stroke="#666" stroke-linecap="round" stroke-linejoin="round">
   <path d="m193.3 307.81c-1.3106 3.4064-2.6665 7.3552-3.75 8.0357 0.39238-2.9236 1.6912-5.5882 3.75-8.0357z"/>
   <path d="m197.41 319.51c1.5874 0.90332 2.9291 0.82365 4.2857 0.80358 0.066-2.7832 0.28937-4.8585-0.0893-9.6429-1.8962 1.4543-2.9829 5.3371-4.1964 8.8393h1e-5z"/>
  </g>
  <g transform="matrix(.99253 -.12202 .12202 .99253 107.81 96.673)" fill="#717171" stroke="#717171" stroke-linecap="round" stroke-linejoin="round">
   <path d="m193.3 307.81c-1.3106 3.4064-2.6665 7.3552-3.75 8.0357 0.39238-2.9236 1.6912-5.5882 3.75-8.0357z"/>
   <path d="m197.41 319.51c1.5874 0.90332 2.9291 0.82365 4.2857 0.80358 0.066-2.7832 0.28937-4.8585-0.0893-9.6429-1.8962 1.4543-2.9829 5.3371-4.1964 8.8393h1e-5z"/>
  </g>
  <g transform="matrix(.97994 -.19927 .19927 .97994 120.65 108.23)" fill="#717171" stroke="#717171" stroke-linecap="round" stroke-linejoin="round">
   <path d="m193.3 307.81c-1.3106 3.4064-2.6665 7.3552-3.75 8.0357 0.39238-2.9236 1.6912-5.5882 3.75-8.0357z"/>
   <path d="m197.41 319.51c1.5874 0.90332 2.9291 0.82365 4.2857 0.80358 0.066-2.7832 0.28937-4.8585-0.0893-9.6429-1.8962 1.4543-2.9829 5.3371-4.1964 8.8393h1e-5z"/>
  </g>
 </g>
 <g transform="matrix(.68926 -.39866 .40949 .67104 -144.19 380.34)" fill-rule="evenodd">
  <path d="m579.5-67.565c-31.986 0.0977-63.776 12.124-79.16 21.627 0.71461 2.542 12.218 5.9061 15.41 5.7066 32.552-10.123 62.275-22.661 92.949-19.94-0.66699-1.6489-2.702-3.3454-5.3513-4.9738-7.7886-1.7019-15.828-2.4448-23.848-2.4203z" fill="#faa"/>
  <path d="m586.8-61.431c-26.641 0.22077-51.552 7.8759-75.873 19.984 2.2423 0.57819 4.2717 0.93346 5.3513 0.86598 29.365-9.1318 56.42-20.23 83.956-20.317-4.5278-0.387-9.0072-0.5696-13.434-0.53292z" fill="#2b0000" opacity=".75"/>
 </g>
 <path transform="matrix(-1.1809 0 0 .90627 462.13 5.7426)" d="m243.57 94.195a25.833 55.356 0 1 1 -51.665 0 25.833 55.356 0 1 1 51.665 0z" fill="url(#i)" stroke="#000" stroke-dashoffset="5.07" stroke-linecap="round" stroke-linejoin="round" stroke-width=".48333"/>
 <path d="m184.62 64.355-0.69497 2.0818-0.55347 1.9434-0.55661 2.0818-0.55347 2.217-0.41825 2.0818-0.4151 2.2202-0.41509 2.2202-0.27988 2.2202-0.13836 2.2233-0.27674 2.2202v2.2202l-0.13836 2.217v4.4404l0.13836 2.3617 0.13837 2.2202 0.27673 2.2201 0.27988 2.2202 0.41509 2.2202 0.4151 2.0818 0.41825 2.217 0.55347 2.0818 0.69498 2.2202 0.69183 1.9434 0.69497 2.0818 0.83335 2.0818 0.97171 1.9434 0.97171 1.8019 0.96856 1.9434 1.1132 1.8051 1.2484 1.8019 1.2484 1.6667 0.97171 1.1101 0.97171 0.97171 0.96857 0.9717 1.1101 0.8302 1.1132 0.83335 1.1069 0.69498 1.1101 0.69183 1.2516 0.55661 1.2484 0.55347 1.2484 0.41824 1.2484 0.27673 0.69497 0.13837h0.55346l1.3868 0.13836h2.7768l1.3868-0.27673 1.2484-0.4151 1.1101-0.27987 1.2484-0.55347 1.1101-0.55661 0.97172-0.55347 1.1101-0.55661 1.9434-1.3868 0.83335-0.83334 0.97171-0.8302 0.8302-0.83334 0.83334-0.83335 0.69498-0.9717 0.83334-0.97172 1.3868-1.9403 1.2484-2.0818 1.2484-2.2202 0.97171-2.2201 1.1101-2.2202 0.83334-2.2201 0.8302-2.2202 0.69498-2.3585 0.55661-2.0818 0.55347-1.9434 0.27673-1.9434 0.41824-1.9434 0.27673-1.9403 0.55347-3.8868 0.27988-4.0252 0.13836-3.8837v-4.0252l-0.13836-4.0221-0.41825-3.8868-0.55347-3.8837-0.41824-1.9434-0.41509-1.9434-0.55347-1.9434-0.41825-1.8019-0.69183-1.8051-0.55661-1.9434-0.69184-1.8019-0.83333-1.6667-0.69498-1.8019-0.97172-1.6667-0.83334-1.6635-0.96856-1.6667-0.97171-1.5252-1.1101-1.6667-1.1101-1.2484-0.9717-1.1101-1.2484-1.1101-1.1101-1.1101-1.2516-0.97172-1.3868-0.83333-1.2484-0.69184-1.3868-0.69498-1.5283-0.55346-1.3868-0.41825-1.5252-0.27673-0.69498-0.13837h-2.3586l-1.5252 0.13837-1.6667 0.27673-1.5252 0.41825-1.805 0.69183-1.6635 0.97171-1.5283 0.97171-0.8302 0.55661-0.69498 0.55347-0.69498 0.69498-0.69183 0.55346-1.39 1.3868-1.2484 1.39-1.2484 1.5252-1.1101 1.5252-1.1101 1.6667-0.97172 1.6635-0.83333 1.6667-0.8302 1.6635-0.83335 1.6667-1.2484 3.3302z" fill="url(#e)"/>
 <path d="m183.2 57.018c-0.695 1.2485-1.3304 2.5432-1.9602 3.8405 1.2352 0.05684 2.4704 0.11367 3.7057 0.17051 0.27826-0.77694 0.61168-1.5194 1.0027-2.2268 0.94154-1.7034 1.8153-3.4704 2.938-5.0154 0.57932-0.79723 1.094-1.6601 1.6417-2.4895-0.66906 0.02514-1.3086-0.21859-1.9831-0.21499-0.57087 3e-3 -0.7726-0.14065-1.2405 0.34511-0.4644 0.48212-1.05 1.2086-1.4895 1.7231-0.90061 1.2263-1.852 2.5126-2.6147 3.8675z" fill="url(#f)" filter="url(#n)"/>
 <path d="m201.97 48.392v0.69497-0.69497z" fill="#fff"/>
 <path d="m199.75 49.502v1.3868-1.3868z" fill="#fff"/>
 <path d="m184.78 127.28 0.82348 1.2343 0.92611 1.232 1.0311 1.3368 1.1314 1.1295 1.1314 1.1295 0.61819 0.5147 0.61818 0.51469 1.339 0.82211 0.7185 0.30742 0.61818 0.30742 1.1337 0.51468 0.51321 0.20495 0.61819 0.10481 0.61819 0.10246 0.61585 0.10248 0.72083 0.10247 0.61819 0.10247-0.82347-0.30742-0.82348-0.41222-0.72083-0.40989-0.82347-0.51468-0.72083-0.5147-0.72083-0.61483-0.7185-0.61716-0.72083-0.71964-1.2364-1.3368-1.234-1.5418-0.51555-0.71963-0.51554-0.71731-0.51322-0.82211-0.51554-0.71963-1.647 0.10247-0.82347 0.10247h-0.72083z" fill="url(#g)" filter="url(#o)"/>
 <path d="m216.75 51.487v27.198-27.198z" fill="#fff"/>
 <path d="m195.06 67.475-0.61077 1.4405-0.6131 1.3379-0.51127 1.4382-0.40719 1.4405-0.40949 1.4405-0.40719 1.543-0.40949 1.5431-0.30539 1.5407-0.20359 1.5431-0.30769 1.543-0.1018 1.6456-0.20358 1.543-0.1018 3.2912v3.1887l0.1018 1.6456 0.10178 1.5431 0.2036 1.6456 0.20359 1.5431 0.20591 1.6456 0.30538 1.5431 0.40949 1.543 0.30539 1.4382 0.51127 1.5431 0.40719 1.4405 0.61308 1.4405 0.50899 1.4382 0.71488 1.3379 0.61307 1.3379 0.71488 1.3356 0.81668 1.2354 0.71487 0.92537 0.61309 0.92536 0.81668 0.82281 0.71487 0.82281 0.81668 0.72024 0.81667 0.72025 0.91848 0.61769 0.91845 0.61536 0.91847 0.51512 0.91848 0.41257 1.0203 0.41024 1.0226 0.20511 1.1221 0.20746h2.1447l1.122-0.20746 0.81667-0.20511 0.81667-0.30768 1.5316-0.61769 0.71488-0.41256 0.61308-0.41024 0.71256-0.51513 0.61309-0.41024 0.61307-0.51513 0.61309-0.61768 0.61077-0.5128 0.61309-0.61769 1.0202-1.233 1.0226-1.3379 0.91848-1.4405 0.81667-1.4405 0.71488-1.4382 0.40717-0.72025 0.30771-0.8228 0.61077-1.5431 0.61308-1.4405 0.51129-1.5431 0.40717-1.4405 0.61309-2.6735 0.30539-1.3356 0.2059-1.3379 0.2036-1.3379 0.20359-1.4382 0.10179-1.3379 0.10179-1.3379 0.2059-2.7761v-2.7761l-0.1041-2.7784-0.30538-2.7761-0.10181-1.4405-0.20358-1.3379-0.51129-2.6735-0.30539-1.3379-0.4095-1.3356-0.40717-1.2354-0.40949-1.3356-0.40718-1.2354-0.51129-1.233-0.61309-1.2354-0.50897-1.233-0.61309-1.1328-0.71487-1.1305-0.71488-1.1328-0.71489-1.0279-0.71488-0.92537-0.71256-0.8228-0.81899-0.8228-0.81666-0.82281-0.91848-0.61769-0.91846-0.72024-0.91847-0.5128-1.0203-0.51513-0.91848-0.41023-1.0226-0.31001-1.1221-0.20512-1.0203-0.10256h-2.1447l-1.1221 0.20512-0.61307 0.20512-0.61308 0.20745-0.91848 0.30768-0.91845 0.51513-0.40719 0.20512-0.51128 0.30768-0.81668 0.61768-0.81668 0.61768-0.81666 0.72026-0.81669 0.72024-0.71487 0.82281-1.4298 1.6433-0.61077 0.92769-0.61308 0.82281-1.1244 1.8507-0.40718 0.92536-0.40948 0.82281z" fill="url(#h)" stroke="#999" stroke-width=".8071"/>
 <g transform="matrix(.52272 0 0 .79773 312.67 84.186)" fill="url(#a)" stroke-linecap="round" stroke-linejoin="round">
  <path transform="matrix(2.402 0 0 2.3985 645.13 -225.7)" d="m-354.12 87.7-3.9307 16.51c-0.0455 0.9172-0.23737 1.4413 0.78615 2.3585" filter="url(#d)" stroke="#000" stroke-opacity=".78824" stroke-width=".3"/>
  <path transform="matrix(2.402 0 0 2.3985 645.13 -225.7)" d="m-354.63 108.14h-11.118" filter="url(#k)" stroke="#000" stroke-opacity=".78824" stroke-width=".3"/>
  <path transform="matrix(2.402 0 0 2.3985 645.13 -225.7)" d="m-358.65 91.042h-3.1446" filter="url(#l)" stroke="#000" stroke-opacity=".78824" stroke-width=".3"/>
  <path transform="matrix(2.402 0 0 2.3985 645.13 -225.7)" d="m-358.84 91.631-2.7515 13.535s-0.68788 1.2486-1.9654 1.7958c-1.3588 0.58207-1.5723 0.39309-1.5723 0.39309" filter="url(#d)" stroke="#fff" stroke-width=".5"/>
  <path transform="matrix(2.402 0 0 2.3985 645.13 -225.7)" d="m-361.59 90.256s2.9765-0.58963 4.7169-1.1793c1.7404-0.58963 2.2447-1.1793 2.2447-1.1793" filter="url(#j)" stroke="#fff" stroke-width=".5"/>
 </g>
 <g transform="matrix(.6061 0 0 .93067 337.78 75.256)" fill="url(#a)">
  <path d="m-203.4-21.607v1.6013" fill-rule="evenodd" stroke="#555753" stroke-linecap="round" stroke-linejoin="round" stroke-opacity=".78431" stroke-width=".48004"/>
  <path d="m-202.24-15.727-1.0683-0.76392-0.94196 0.83513 0.34135-1.3354-1.0251-0.71128 1.2792-0.06139 0.30839-1.2747 0.44928 1.2974 1.2157-0.07653-1.0016 0.86325 0.44299 1.2274z" stroke="#000" stroke-linecap="round" stroke-linejoin="round" stroke-opacity=".63111" stroke-width=".48004"/>
  <path d="m-202.76-16.006-1.0683-0.76392-0.94194 0.83513 0.34134-1.3354-1.0251-0.71128 1.2792-0.06139 0.30838-1.2747 0.44927 1.2974 1.2157-0.07653-1.0016 0.86324 0.44295 1.2274z" stroke="#ffede2" stroke-linecap="round" stroke-linejoin="round" stroke-width=".24002"/>
  <path d="m-198.96-13.913-1.0683-0.76392-0.94199 0.83513 0.34138-1.3354-1.0252-0.71128 1.2792-0.0614 0.30842-1.2747 0.44925 1.2974 1.2157-0.0765-1.0016 0.86324 0.44297 1.2274z" stroke="#000" stroke-linecap="round" stroke-linejoin="round" stroke-opacity=".63111" stroke-width=".48004"/>
  <path d="m-199.48-14.192-1.0683-0.76393-0.94197 0.83513 0.34136-1.3354-1.0251-0.71128 1.2792-0.0614 0.3084-1.2747 0.44928 1.2974 1.2157-0.0765-1.0016 0.86324 0.44298 1.2274z" stroke="#ffede2" stroke-linecap="round" stroke-linejoin="round" stroke-width=".24002"/>
  <path d="m-195.96-11.514-1.0683-0.76392-0.94196 0.83512 0.34136-1.3354-1.0251-0.71127 1.2792-0.0614 0.30842-1.2747 0.44927 1.2974 1.2157-0.0765-1.0016 0.86324 0.44296 1.2274z" stroke="#000" stroke-linecap="round" stroke-linejoin="round" stroke-opacity=".63111" stroke-width=".48004"/>
  <path d="m-196.48-11.794-1.0683-0.76392-0.942 0.83512 0.3414-1.3354-1.0252-0.71128 1.2792-0.0614 0.30843-1.2747 0.44927 1.2974 1.2157-0.0765-1.0016 0.86324 0.44297 1.2274z" stroke="#ffede2" stroke-linecap="round" stroke-linejoin="round" stroke-width=".24002"/>
  <path d="m-192.66-9.2656-1.0683-0.76392-0.942 0.83512 0.34135-1.3354-1.0251-0.71127 1.2792-0.0614 0.3084-1.2747 0.44927 1.2974 1.2157-0.0765-1.0016 0.86324 0.44297 1.2274z" stroke="#000" stroke-linecap="round" stroke-linejoin="round" stroke-opacity=".63111" stroke-width=".48004"/>
  <path d="m-193.18-9.5453-1.0683-0.76392-0.94198 0.83512 0.34137-1.3354-1.0251-0.71128 1.2792-0.0614 0.30841-1.2747 0.44926 1.2974 1.2157-0.0765-1.0016 0.86324 0.44297 1.2274z" stroke="#ffede2" stroke-linecap="round" stroke-linejoin="round" stroke-width=".24002"/>
  <path d="m-189.5-5.518-1.0683-0.76394-0.94199 0.83514 0.34136-1.3354-1.0251-0.71129 1.2792-0.0614 0.3084-1.2747 0.44928 1.2974 1.2157-0.0765-1.0016 0.86324 0.44298 1.2274z" stroke="#000" stroke-linecap="round" stroke-linejoin="round" stroke-opacity=".63111" stroke-width=".48004"/>
  <path d="m-190.02-5.7977-1.0683-0.76392-0.94195 0.83511 0.34135-1.3354-1.0251-0.71129 1.2792-0.0614 0.30842-1.2747 0.44925 1.2974 1.2157-0.0765-1.0016 0.86325 0.44296 1.2274z" stroke="#ffede2" stroke-linecap="round" stroke-linejoin="round" stroke-width=".24002"/>
  <path d="m-186.58-1.0208-1.0683-0.76391-0.94196 0.83513 0.34136-1.3354-1.0251-0.71131 1.2792-0.0614 0.30842-1.2747 0.44925 1.2974 1.2157-0.0765-1.0016 0.86323 0.44298 1.2274z" stroke="#000" stroke-linecap="round" stroke-linejoin="round" stroke-opacity=".63111" stroke-width=".48004"/>
  <path d="m-187.1-1.3005-1.0683-0.76392-0.94198 0.83513 0.34138-1.3354-1.0251-0.71128 1.2792-0.0614 0.3084-1.2747 0.44926 1.2974 1.2157-0.0765-1.0016 0.86323 0.44297 1.2274z" stroke="#ffede2" stroke-linecap="round" stroke-linejoin="round" stroke-width=".24002"/>
  <path d="m-186.2 31.733-1.0683-0.76394-0.94196 0.83514 0.34136-1.3354-1.0251-0.71127 1.2792-0.0614 0.3084-1.2747 0.44925 1.2974 1.2157-0.0765-1.0016 0.86322 0.44295 1.2274z" stroke="#000" stroke-linecap="round" stroke-linejoin="round" stroke-opacity=".63111" stroke-width=".48004"/>
  <path d="m-186.72 31.454-1.0683-0.7639-0.94195 0.83512 0.34135-1.3354-1.0251-0.71127 1.2792-0.0614 0.30838-1.2747 0.44928 1.2974 1.2157-0.0765-1.0016 0.86323 0.44297 1.2274z" stroke="#d5ba7d" stroke-linecap="round" stroke-linejoin="round" stroke-width=".24002"/>
  <path d="m-203.82-21.607v1.6013" stroke="#fff" stroke-linecap="round" stroke-linejoin="round" stroke-opacity=".78431" stroke-width=".48004"/>
  <path d="m-189.35 35.665-1.0683-0.76392-0.94198 0.83512 0.34135-1.3354-1.0251-0.7113 1.2792-0.0614 0.3084-1.2747 0.44927 1.2974 1.2157-0.0765-1.0016 0.86325 0.44296 1.2274z" stroke="#000" stroke-linecap="round" stroke-linejoin="round" stroke-opacity=".63111" stroke-width=".48004"/>
  <path d="m-189.87 35.385-1.0682-0.76391-0.94198 0.83512 0.34133-1.3354-1.0251-0.71129 1.2792-0.0614 0.30841-1.2747 0.44927 1.2974 1.2157-0.0765-1.0016 0.86324 0.44297 1.2274z" stroke="#d5ba7d" stroke-linecap="round" stroke-linejoin="round" stroke-width=".24002"/>
  <path d="m-192.28 39.229-1.0683-0.76392-0.94199 0.83513 0.34136-1.3354-1.0251-0.71126 1.2792-0.0614 0.3084-1.2747 0.44927 1.2974 1.2157-0.0765-1.0016 0.86326 0.44298 1.2274z" stroke="#000" stroke-linecap="round" stroke-linejoin="round" stroke-opacity=".63111" stroke-width=".48004"/>
  <path d="m-192.8 38.949-1.0683-0.76392-0.94197 0.83514 0.34137-1.3354-1.0251-0.71128 1.2792-0.0614 0.30841-1.2747 0.44928 1.2974 1.2157-0.0765-1.0016 0.86323 0.44299 1.2274z" stroke="#d5ba7d" stroke-linecap="round" stroke-linejoin="round" stroke-width=".24002"/>
  <path d="m-195.51 42.152-1.0683-0.76391-0.942 0.83513 0.34135-1.3354-1.0251-0.71126 1.2792-0.0614 0.3084-1.2747 0.44926 1.2974 1.2158-0.0765-1.0016 0.86324 0.44297 1.2274z" stroke="#000" stroke-linecap="round" stroke-linejoin="round" stroke-opacity=".63111" stroke-width=".48004"/>
  <path d="m-196.03 41.872-1.0683-0.76392-0.94198 0.83512 0.34137-1.3354-1.0251-0.71128 1.2792-0.0614 0.30841-1.2747 0.44925 1.2974 1.2157-0.0765-1.0015 0.86326 0.44296 1.2274z" stroke="#d5ba7d" stroke-linecap="round" stroke-linejoin="round" stroke-width=".24002"/>
  <path d="m-198.66 44.55-1.0683-0.76393-0.94195 0.83515 0.34133-1.3354-1.0251-0.71126 1.2792-0.0614 0.30839-1.2747 0.44925 1.2974 1.2157-0.0765-1.0016 0.86324 0.44296 1.2274z" stroke="#000" stroke-linecap="round" stroke-linejoin="round" stroke-opacity=".63111" stroke-width=".48004"/>
  <path d="m-199.18 44.271-1.0683-0.7639-0.94195 0.83511 0.34133-1.3354-1.0251-0.71126 1.2793-0.0614 0.30835-1.2747 0.44927 1.2974 1.2158-0.0765-1.0016 0.86325 0.44297 1.2274z" stroke="#d5ba7d" stroke-linecap="round" stroke-linejoin="round" stroke-width=".24002"/>
  <path d="m-201.89 46.724-1.0683-0.76391-0.94195 0.83511 0.34133-1.3354-1.0251-0.71127 1.2792-0.0614 0.30839-1.2747 0.44926 1.2974 1.2157-0.0765-1.0016 0.86323 0.44297 1.2274z" stroke="#000" stroke-linecap="round" stroke-linejoin="round" stroke-opacity=".63111" stroke-width=".48004"/>
  <path d="m-202.41 46.444-1.0683-0.76392-0.94196 0.83512 0.34135-1.3354-1.0251-0.71127 1.2792-0.0614 0.3084-1.2747 0.44925 1.2974 1.2157-0.0765-1.0016 0.86326 0.44295 1.2274z" stroke="#d5ba7d" stroke-linecap="round" stroke-linejoin="round" stroke-width=".24002"/>
  <path d="m-203.4-15.311v20.414" fill-rule="evenodd" stroke="#555753" stroke-linecap="round" stroke-linejoin="round" stroke-opacity=".78431" stroke-width=".48004"/>
  <path d="m-203.82-15.311v20.414" stroke="#fff" stroke-linecap="round" stroke-linejoin="round" stroke-opacity=".78431" stroke-width=".48004"/>
  <path d="m-203.4 46.868v2.0254" fill-rule="evenodd" stroke="#555753" stroke-linecap="round" stroke-linejoin="round" stroke-opacity=".78431" stroke-width=".48004"/>
  <path d="m-203.82 46.868v2.0254" stroke="#fff" stroke-linecap="round" stroke-linejoin="round" stroke-opacity=".78431" stroke-width=".48004"/>
  <path d="m-203.4 26.039v15.752" fill-rule="evenodd" stroke="#555753" stroke-linecap="round" stroke-linejoin="round" stroke-opacity=".78431" stroke-width=".48004"/>
  <path d="m-203.82 26.039v15.752" stroke="#fff" stroke-linecap="round" stroke-linejoin="round" stroke-opacity=".78431" stroke-width=".48004"/>
  <path d="m-200.33-19.914v1.6013" fill-rule="evenodd" stroke="#555753" stroke-linecap="round" stroke-linejoin="round" stroke-opacity=".78431" stroke-width=".48004"/>
  <path d="m-200.76-19.914v1.6013" stroke="#fff" stroke-linecap="round" stroke-linejoin="round" stroke-opacity=".78431" stroke-width=".48004"/>
  <path d="m-197.18-11.369v2.9505" fill-rule="evenodd" stroke="#555753" stroke-linecap="round" stroke-linejoin="round" stroke-opacity=".78431" stroke-width=".48004"/>
  <path d="m-197.61-11.369v2.9505" stroke="#fff" stroke-linecap="round" stroke-linejoin="round" stroke-opacity=".78431" stroke-width=".48004"/>
  <path d="m-193.95-15.641v2.2759" fill-rule="evenodd" stroke="#555753" stroke-linecap="round" stroke-linejoin="round" stroke-opacity=".78431" stroke-width=".48004"/>
  <path d="m-194.38-15.641v2.2759" stroke="#fff" stroke-linecap="round" stroke-linejoin="round" stroke-opacity=".78431" stroke-width=".48004"/>
  <path d="m-190.84-12.756v2.7256" fill-rule="evenodd" stroke="#555753" stroke-linecap="round" stroke-linejoin="round" stroke-opacity=".78431" stroke-width=".48004"/>
  <path d="m-191.26-12.756v2.7256" stroke="#fff" stroke-linecap="round" stroke-linejoin="round" stroke-opacity=".78431" stroke-width=".48004"/>
  <path d="m-187.61-9.2329v3.3253" fill-rule="evenodd" stroke="#555753" stroke-linecap="round" stroke-linejoin="round" stroke-opacity=".78431" stroke-width=".48004"/>
  <path d="m-188.04-9.2329v3.3253" stroke="#fff" stroke-linecap="round" stroke-linejoin="round" stroke-opacity=".78431" stroke-width=".48004"/>
  <path d="m-200.33-13.468v9.8461" fill-rule="evenodd" stroke="#555753" stroke-linecap="round" stroke-linejoin="round" stroke-opacity=".78431" stroke-width=".48004"/>
  <path d="m-200.76-13.468v9.8461" stroke="#fff" stroke-linecap="round" stroke-linejoin="round" stroke-opacity=".78431" stroke-width=".48004"/>
  <path d="m-200.03 32.328v7.8224" fill-rule="evenodd" stroke="#555753" stroke-linecap="round" stroke-linejoin="round" stroke-opacity=".78431" stroke-width=".48004"/>
  <path d="m-200.46 32.328v7.8224" stroke="#fff" stroke-linecap="round" stroke-linejoin="round" stroke-opacity=".78431" stroke-width=".48004"/>
  <path d="m-200.03 44.995v2.3508" fill-rule="evenodd" stroke="#555753" stroke-linecap="round" stroke-linejoin="round" stroke-opacity=".78431" stroke-width=".48004"/>
  <path d="m-200.46 44.995v2.3508" stroke="#fff" stroke-linecap="round" stroke-linejoin="round" stroke-opacity=".78431" stroke-width=".48004"/>
  <path d="m-197.18-18.265v2.201" fill-rule="evenodd" stroke="#555753" stroke-linecap="round" stroke-linejoin="round" stroke-opacity=".78431" stroke-width=".48004"/>
  <path d="m-197.61-18.265v2.201" stroke="#fff" stroke-linecap="round" stroke-linejoin="round" stroke-opacity=".78431" stroke-width=".48004"/>
  <path d="m-196.88 23.484v3.775" fill-rule="evenodd" stroke="#555753" stroke-linecap="round" stroke-linejoin="round" stroke-opacity=".78431" stroke-width=".48004"/>
  <path d="m-197.31 23.484v3.775" stroke="#fff" stroke-linecap="round" stroke-linejoin="round" stroke-opacity=".78431" stroke-width=".48004"/>
  <path d="m-196.88 28.581v9.1716" fill-rule="evenodd" stroke="#555753" stroke-linecap="round" stroke-linejoin="round" stroke-opacity=".78431" stroke-width=".48004"/>
  <path d="m-197.31 28.581v9.1716" stroke="#fff" stroke-linecap="round" stroke-linejoin="round" stroke-opacity=".78431" stroke-width=".48004"/>
  <path d="m-196.88 42.522v3.1754" fill-rule="evenodd" stroke="#555753" stroke-linecap="round" stroke-linejoin="round" stroke-opacity=".78431" stroke-width=".48004"/>
  <path d="m-197.31 42.522v3.1754" stroke="#fff" stroke-linecap="round" stroke-linejoin="round" stroke-opacity=".78431" stroke-width=".48004"/>
  <path d="m-197.18 8.1936v2.6504" fill-rule="evenodd" stroke="#555753" stroke-linecap="round" stroke-linejoin="round" stroke-opacity=".78431" stroke-width=".48004"/>
  <path d="m-197.61 8.1936v2.6504" stroke="#fff" stroke-linecap="round" stroke-linejoin="round" stroke-opacity=".78431" stroke-width=".48004"/>
  <path d="m-200.33 8.9431v1.6759" fill-rule="evenodd" stroke="#555753" stroke-linecap="round" stroke-linejoin="round" stroke-opacity=".78431" stroke-width=".48004"/>
  <path d="m-200.76 8.9431v1.6759" stroke="#fff" stroke-linecap="round" stroke-linejoin="round" stroke-opacity=".78431" stroke-width=".48004"/>
  <path d="m-193.95 3.7712v7.0728" fill-rule="evenodd" stroke="#555753" stroke-linecap="round" stroke-linejoin="round" stroke-opacity=".78431" stroke-width=".48004"/>
  <path d="m-194.38 3.7712v7.0728" stroke="#fff" stroke-linecap="round" stroke-linejoin="round" stroke-opacity=".78431" stroke-width=".48004"/>
  <path d="m-193.8 30.454v4.2996" fill-rule="evenodd" stroke="#555753" stroke-linecap="round" stroke-linejoin="round" stroke-opacity=".78431" stroke-width=".48004"/>
  <path d="m-194.23 30.454v4.2996" stroke="#fff" stroke-linecap="round" stroke-linejoin="round" stroke-opacity=".78431" stroke-width=".48004"/>
  <path d="m-193.8 39.599v2.9505" fill-rule="evenodd" stroke="#555753" stroke-linecap="round" stroke-linejoin="round" stroke-opacity=".78431" stroke-width=".48004"/>
  <path d="m-194.23 39.599v2.9505" stroke="#fff" stroke-linecap="round" stroke-linejoin="round" stroke-opacity=".78431" stroke-width=".48004"/>
  <path d="m-193.8 23.409v0.8518" fill-rule="evenodd" stroke="#555753" stroke-linecap="round" stroke-linejoin="round" stroke-opacity=".78431" stroke-width=".48004"/>
  <path d="m-194.23 23.409v0.8518" stroke="#fff" stroke-linecap="round" stroke-linejoin="round" stroke-opacity=".78431" stroke-width=".48004"/>
  <path d="m-190.84-5.2605v2.8756" fill-rule="evenodd" stroke="#555753" stroke-linecap="round" stroke-linejoin="round" stroke-opacity=".78431" stroke-width=".48004"/>
  <path d="m-191.26-5.2605v2.8756" stroke="#fff" stroke-linecap="round" stroke-linejoin="round" stroke-opacity=".78431" stroke-width=".48004"/>
  <path d="m-190.84 0.21108v10.446" fill-rule="evenodd" stroke="#555753" stroke-linecap="round" stroke-linejoin="round" stroke-opacity=".78431" stroke-width=".48004"/>
  <path d="m-191.26 0.21108v10.446" stroke="#fff" stroke-linecap="round" stroke-linejoin="round" stroke-opacity=".78431" stroke-width=".48004"/>
  <path d="m-190.62 25.757v4.1918" fill-rule="evenodd" stroke="#555753" stroke-linecap="round" stroke-linejoin="round" stroke-opacity=".78431" stroke-width=".48004"/>
  <path d="m-191.05 25.757v4.1918" stroke="#fff" stroke-linecap="round" stroke-linejoin="round" stroke-opacity=".78431" stroke-width=".48004"/>
  <path d="m-190.62 35.933v3.3438" fill-rule="evenodd" stroke="#555753" stroke-linecap="round" stroke-linejoin="round" stroke-opacity=".78431" stroke-width=".48004"/>
  <path d="m-191.05 35.933v3.3438" stroke="#fff" stroke-linecap="round" stroke-linejoin="round" stroke-opacity=".78431" stroke-width=".48004"/>
  <path d="m-187.61-0.75302v11.381" fill-rule="evenodd" stroke="#555753" stroke-linecap="round" stroke-linejoin="round" stroke-opacity=".78431" stroke-width=".48004"/>
  <path d="m-188.04-0.75302v11.381" stroke="#fff" stroke-linecap="round" stroke-linejoin="round" stroke-opacity=".78431" stroke-width=".48004"/>
  <path d="m-187.48 31.908v3.1133" fill-rule="evenodd" stroke="#555753" stroke-linecap="round" stroke-linejoin="round" stroke-opacity=".78431" stroke-width=".48004"/>
  <path d="m-187.9 31.908v3.1133" stroke="#fff" stroke-linecap="round" stroke-linejoin="round" stroke-opacity=".78431" stroke-width=".48004"/>
  <path d="m-187.48 23.428v3.9612" fill-rule="evenodd" stroke="#555753" stroke-linecap="round" stroke-linejoin="round" stroke-opacity=".78431" stroke-width=".48004"/>
  <path d="m-187.9 23.428v3.9612" stroke="#fff" stroke-linecap="round" stroke-linejoin="round" stroke-opacity=".78431" stroke-width=".48004"/>
  <path d="m-212.95 5.737 1.1924 0.4592-0.29812 1.8368-1.4905 1.2245-0.29809 1.5306-1.4906 1.2245 1.4906 0.30612 3.5772-0.61225 0.89434-1.8368-0.59622-1.5306-0.14916-2.449-0.8943-0.91838 0.2981-2.1429-1.3415-0.91837-1.1924 2.449 0.29811 1.3776z" fill-rule="evenodd" stroke="#000" stroke-opacity=".78431" stroke-width=".43475"/>
  <path d="m-215.18 5.1247 1.1924 1.8368-1.4905 2.1429-0.89434 0.61227h-2.3848l0.29812-1.2246 0.89432-0.91836 0.59622-1.5306 1.7886-0.91839z" fill-rule="evenodd" stroke="#000" stroke-opacity=".78431" stroke-width=".43475"/>
  <path d="m-213.84 1.6043s-1.1924 3.2144-0.59623 2.449c0.59623-0.76535 1.4905-1.8368 1.4905-1.8368l-0.8943-0.61226z" fill-rule="evenodd" stroke="#000" stroke-opacity=".78431" stroke-width=".43475"/>
  <path d="m-218.76 33.748-1.1924 1.5306 0.89433 0.61227 1.1924-1.2245-0.89435-0.91839z" fill-rule="evenodd" stroke="#000" stroke-opacity=".78431" stroke-width=".43475"/>
  <path d="m-217.57 34.972-1.1924 1.2245h2.0867l-0.89433-1.2245z" fill-rule="evenodd" stroke="#000" stroke-opacity=".78431" stroke-width=".43475"/>
  <path d="m-214.88 33.748-1.7886 1.5306 0.89433 0.91837 2.0867-0.91837-1.1924-1.5306z" fill-rule="evenodd" stroke="#000" stroke-opacity=".78431" stroke-width=".43475"/>
  <path d="m-209.82 26.707-1.1924 0.61227 0.89434 1.2245 0.89431-0.9184-0.59621-0.91839z" fill-rule="evenodd" stroke="#000" stroke-opacity=".78431" stroke-width=".43475"/>
  <path d="m-206.54 26.707-0.2981 2.449h0.8943l1.1924-1.5306v-1.2245l-1.7886 0.30614z" fill-rule="evenodd" stroke="#000" stroke-opacity=".78431" stroke-width=".43475"/>
  <path d="m-205.73 24.407-0.63239 0.43294 0.42158 0.43293 0.2109 0.64938h0.84316l0.21089-0.86585-1.0539-0.6494z" fill-rule="evenodd" stroke="#000" stroke-opacity=".78431" stroke-width=".43475"/>
  <path d="m-204.89 6.6566 0.42158 2.814 0.84316-0.21645 0.2109-1.9482 0.42158-0.6494-0.63239-0.64937-1.2648 0.64937z" fill-rule="evenodd" stroke="#000" stroke-opacity=".78431" stroke-width=".43475"/>
  <path d="m-197.19 4.8167v1.5153l-0.4216 0.43293 0.4216 0.86585 0.84316-1.0823v-1.9482l-0.84316 0.21647z" fill-rule="evenodd" stroke="#000" stroke-opacity=".78431" stroke-width=".43475"/>
  <path d="m-200.67 7.8472 0.84319 0.64938 1.4756-1.0823 0.4216-3.247 0.63238-0.64938v-1.2988l-1.054-0.86587 0.63238-1.5153v-1.0823l1.8971-2.814 0.2109-2.3811-1.054-2.3811-2.1079 1.7317-0.84317 3.0305-0.63238 0.64939 0.21089 1.0823-1.2648 1.5153 0.21089 2.5976-0.8432 2.3811v1.0823l1.2648 0.64939-0.2109 1.0823 0.2109 0.86589z" fill-rule="evenodd" stroke="#000" stroke-opacity=".78431" stroke-width=".43475"/>
  <path d="m-196.24-8.063 0.84316 1.9482-0.42159 2.3811h0.42159v0.64939l-1.054 1.9482 0.2109 2.1646 0.21089 0.86585 1.2648 0.86586 1.8971-0.86586 1.4756-1.7317 0.63237-1.7317-1.0539-1.0823-0.2109-1.5153-0.63239-0.43293v-2.1646l-0.84319-1.5153-0.21089-1.2988-0.63237-0.21647-1.8972 1.7317z" fill-rule="evenodd" stroke="#000" stroke-opacity=".78431" stroke-width=".43475"/>
  <path d="m-192.03 24.623-2.9511 0.43293-1.054 2.1646 1.054 0.86586h1.6863l-1.6863 1.2988 2.5295 0.86585-0.42161-2.1646h1.2648l-1.2648-1.2988 2.108-1.2988 1.2648-0.43293-2.5295-0.43293z" fill-rule="evenodd" stroke="#000" stroke-opacity=".78431" stroke-width=".43475"/>
  <path d="m-212.1 2.211-1.201 2.3985 0.30024 1.3492 1.201 0.44972-0.30024 1.7988-1.5012 1.1992-0.30024 1.4991-1.5012 1.1992" stroke="#fff" stroke-width=".48004"/>
  <path d="m-218.86 9.8562 0.30025-1.1992 0.90074-0.89944 0.60048-1.499 1.8015-0.89946" stroke="#fff" stroke-width=".48004"/>
  <path d="m-213.91 1.9112s-1.201 3.148-0.6005 2.3985c0.6005-0.74952 1.5012-1.7989 1.5012-1.7989l-0.90073-0.59962z" fill-rule="evenodd" stroke="#000" stroke-opacity=".78431" stroke-width=".48004"/>
  <path d="m-217.96 34.291-0.90075-0.89943-1.201 1.4991 0.90073 0.59962" stroke="#fff" stroke-width=".48004"/>
  <path d="m-216.76 35.79-0.90072-1.1992-1.201 1.1992" stroke="#fff" stroke-width=".48004"/>
  <path d="m-213.76 34.89-1.201-1.4991-1.8015 1.4991 0.90073 0.89943" stroke="#fff" stroke-width=".48004"/>
  <path d="m-209.25 27.395-0.6005-0.89942-1.201 0.59961 0.90072 1.1992" stroke="#fff" stroke-width=".48004"/>
  <path d="m-204.75 26.196-1.8015 0.29982-0.30024 2.3985h0.90071" stroke="#fff" stroke-width=".48004"/>
  <path d="m-204.67 24.879-1.0615-0.63597-0.6369 0.42401 0.4246 0.424 0.21235 0.636" stroke="#fff" stroke-width=".48004"/>
  <path d="m-204.89 6.8593 0.42462 2.756 0.84923-0.21201 0.21232-1.908 0.42464-0.63597-0.63695-0.63602-1.2738 0.63602z" stroke="#fff" stroke-width=".48004"/>
  <path d="m-196.29 4.8453-0.84923 0.21201v1.484l-0.4246 0.424 0.4246 0.84798" stroke="#fff" stroke-width=".48004"/>
  <path d="m-196.61-8.2986-2.123 1.696-0.84923 2.968-0.6369 0.63598 0.21234 1.06-1.2738 1.484 0.21234 2.544-0.84922 2.332v1.06l1.2738 0.63598-0.21234 1.06 0.21234 0.848 0.84922 0.63597" stroke="#fff" stroke-width=".48004"/>
  <path d="m-193.63-9.0406-0.6369-0.212-1.9108 1.696m0.42462 4.24h0.4246v0.63599l-1.0615 1.908 0.21233 2.12 0.21235 0.84798" stroke="#fff" stroke-width=".48004"/>
  <path d="m-193.21 27.847-1.6984 1.272 2.5477 0.848m-0.42462-2.12h1.2738m0.84921-2.544 1.2738-0.42402-2.5477-0.42399-2.9723 0.42399-1.0615 2.12 1.0615 0.84796" stroke="#fff" stroke-width=".48004"/>
  <text transform="scale(.98043 1.02)" x="-211.79729" y="20.296967" font-family="Utopia" font-size="13.5px" font-style="italic" stroke="#2d2d2d" stroke-opacity=".59111" stroke-width=".72007">
   <tspan x="-211.79729" y="20.296967" fill="url(#a)" stroke="#2d2d2d" stroke-opacity=".59111" stroke-width=".72007">U</tspan>
  </text>
  <path d="m-213.52 11.384-0.0928 0.39929 0.79415 0.0552c0.30442 0.0274 0.39706 0.19284 0.29118 0.66095l-1.5883 7.2703c-0.10583 0.46817-0.22506 0.63342-0.54268 0.66096l-0.74118 0.0826-0.0796 0.39932h6.9091l0.67502-2.4234h-0.39705c-0.67504 1.6936-1.2706 1.9415-2.8987 1.9415-0.64856 0-1.3103-0.0413-1.4824-0.17893-0.19863-0.16528-0.21186-0.37176-0.0664-1.0189l0.67505-3.0155h1.7339c1.1648 0 1.2045 0.28915 1.1515 1.1842h0.39702l0.60889-2.8778h-0.3971c-0.34413 0.95008-0.48973 1.1704-1.6545 1.1704h-1.7339l0.75446-3.4286c0.0661-0.33049 0.14554-0.39933 0.37059-0.39933h1.6015c1.6677 0 1.628 0.57832 1.5089 1.8176h0.39708l0.50295-2.2995h-6.6973" stroke="#2d2d2d" stroke-opacity=".59111" stroke-width=".72007"/>
  <path d="m-195.14 11.174-0.0928 0.39933 0.78093 0.0687c0.30443 0.0274 0.39707 0.22043 0.29119 0.67472l-1.5883 7.2428c-0.10598 0.48195-0.23827 0.6334-0.5559 0.66094l-0.72801 0.0827-0.0796 0.39931h3.6266l0.0796-0.39931-0.78091-0.0687c-0.31768-0.0276-0.39708-0.20652-0.2912-0.67468l0.72798-3.346h0.79417c0.43677 0 0.80735 0.0413 1.0059 0.17893 0.22506 0.13789 0.37063 0.37177 0.42355 0.6747 0.0796 0.4957-0.0264 1.556 0.0928 2.5749 0.0928 0.68845 0.48974 1.0603 1.3368 1.0603h1.0324l0.11913-0.39932c-0.5824-0.0552-0.90005-0.20651-1.0589-0.48193-0.13241-0.2341-0.19864-0.74356-0.18519-1.4596 0.0156-1.1016-0.013-2.0379-1.2177-2.3821v-0.0276c1.6148-0.2341 2.7266-1.1979 2.7266-2.5611 0-0.97763-0.41034-2.2169-2.8854-2.2169h-3.5736m1.4956 4.5577 0.78093-3.5526c0.0928-0.39934 0.1324-0.52324 1.1383-0.52324 0.86035 0 1.6545 0.39931 1.6545 1.5973 0 1.6386-1.0192 2.4785-2.7266 2.4785h-0.84709" stroke="#2d2d2d" stroke-opacity=".59111" stroke-width=".72007"/>
  <path d="m-181.86 11.449c1.4559 0 2.3824 0.89501 2.3824 2.8365 0 0.78489-0.0795 1.9278-0.62207 3.3873-0.54264 1.4596-1.4427 2.7539-3.1634 2.7539-1.4295 0-2.3692-0.97765-2.3692-2.8916 0-1.1567 0.21185-2.4372 0.82063-3.7728 0.60886-1.3081 1.5486-2.3133 2.9516-2.3133m-0.0529-0.48197c-2.1177 0-3.4281 1.2117-4.1958 2.5336-0.72795 1.2806-0.91325 2.5749-0.91325 3.4837 0 2.272 1.2442 3.9243 3.8781 3.9243 2.3428 0 3.4943-1.253 4.2222-2.6162 0.71474-1.3494 0.83387-2.7539 0.83387-3.2909 0-2.8228-1.6413-4.0345-3.8252-4.0345" stroke="#2d2d2d" stroke-opacity=".59111" stroke-width=".72007"/>
  <path d="m-214.32 11.05-0.0928 0.39929 0.79414 0.0552c0.30443 0.0274 0.39707 0.19283 0.29119 0.66095l-1.5883 7.2703c-0.10584 0.46813-0.22506 0.63339-0.54266 0.66093l-0.7412 0.0827-0.0796 0.39933h6.9091l0.67506-2.4234h-0.39707c-0.67502 1.6936-1.2706 1.9415-2.8986 1.9415-0.64856 0-1.3104-0.0413-1.4824-0.17891-0.19865-0.16528-0.21186-0.37177-0.0663-1.019l0.67506-3.0155h1.7338c1.1648 0 1.2045 0.28916 1.1515 1.1842h0.39707l0.60884-2.8778h-0.39708c-0.34411 0.9501-0.48973 1.1704-1.6545 1.1704h-1.7339l0.75448-3.4286c0.066-0.3305 0.14554-0.39933 0.37062-0.39933h1.6015c1.6677 0 1.628 0.57832 1.5089 1.8176h0.39709l0.50296-2.2995h-6.6974" stroke="#fff" stroke-opacity=".78431" stroke-width=".48004"/>
  <path d="m-205.98 10.84-0.0928 0.39932 0.78091 0.0687c0.30443 0.0276 0.39706 0.22019 0.29121 0.6747l-1.1118 4.8606c-0.62207 2.7401 0.80741 3.7316 3.084 3.7316 1.8001 0 3.4546-0.39933 4.1825-3.6076l1.1251-4.9846c0.10584-0.46814 0.22506-0.64717 0.55588-0.6747l0.72799-0.0687 0.0928-0.39932h-3.6266l-0.0928 0.39932 0.78093 0.0687c0.3044 0.0276 0.39706 0.22019 0.29117 0.6747l-1.0721 4.8056c-0.41031 1.8313-1.0589 3.3047-2.8987 3.3047-1.4692 0-2.3957-0.83993-1.8133-3.4286l1.0456-4.6816c0.10584-0.46817 0.22506-0.66096 0.55591-0.68848l0.72798-0.0551 0.0928-0.3993h-3.6266" stroke="#fff" stroke-opacity=".78431" stroke-width=".48004"/>
  <path d="m-183.78 20.575c2.3824 0 3.5869-1.2255 4.2884-2.63 0.67501-1.3494 0.7809-2.6162 0.7809-3.346 0-2.7814-1.6942-3.9656-3.9178-3.9656-2.3957 0-3.7457 1.3218-4.4605 2.7401-0.70151 1.4045-0.75444 2.6438-0.75444 3.3598 0 2.3271 1.403 3.8417 4.0634 3.8417m-0.22506-0.6334c-1.1118 0-1.6545-0.78487-1.6545-2.1894 0-2.1893 1.0457-6.4854 3.2296-6.4854 1.178 0 1.5353 0.92255 1.5353 2.1343 0 2.6713-1.1515 6.5405-3.1104 6.5405" stroke="#fbebb0" stroke-width=".48004"/>
  <path d="m-195.95 10.84-0.0928 0.39932 0.78092 0.0687c0.3044 0.0276 0.39706 0.22019 0.29119 0.6747l-1.5883 7.2428c-0.10584 0.48194-0.23828 0.63341-0.55591 0.66094l-0.72798 0.0825-0.0796 0.39933h3.6266l0.0796-0.39933-0.78093-0.0687c-0.31768-0.0276-0.39708-0.20651-0.29119-0.6747l0.72797-3.346h0.79417c0.43677 0 0.80736 0.0413 1.0059 0.17894 0.22506 0.13746 0.37062 0.37176 0.42354 0.67471 0.0796 0.49568-0.0264 1.556 0.0928 2.5749 0.0928 0.68846 0.48975 1.0603 1.3368 1.0603h1.0324l0.11912-0.39934c-0.58237-0.0552-0.90005-0.2065-1.0588-0.4819-0.13226-0.23411-0.19864-0.74356-0.18519-1.4596 0.013-1.1016-0.013-2.0379-1.2177-2.3821v-0.0276c1.6148-0.23407 2.7266-1.1979 2.7266-2.5611 0-0.97765-0.41032-2.2169-2.8854-2.2169h-3.5737m1.4956 4.5577 0.78094-3.5526c0.0928-0.39929 0.13241-0.52321 1.1383-0.52321 0.8603 0 1.6545 0.3993 1.6545 1.5972 0 1.6386-1.0192 2.4785-2.7266 2.4785h-0.84712" stroke="#fff" stroke-opacity=".78431" stroke-width=".48004"/>
  <path d="m-186.39 12.007s-1.5062 2.1569-1.669 4c-0.25034 2.8334 0.66762 3.3334 0.66762 3.3334" fill-rule="evenodd" stroke="#f3f4f6" stroke-width=".24002"/>
 </g>
 <path d="m195.52 146.78c22.956-26.752 33.02-38.949 54.127-49.708 6.8146 0.43252 12.579 4.9579 17.043 9.7839l-39.767 49.235c-10.468-3.1035-20.935-6.207-31.403-9.3105z" fill="#ccc"/>
</svg>
