<?xml version="1.0" encoding="UTF-8"?>
<svg viewBox="0 0 215.40561 292.70966" xmlns="http://www.w3.org/2000/svg">
 <g transform="matrix(.56365 0 0 .56365 -190.23 -284.16)" fill-rule="evenodd">
  <path d="m717.14 823.8c1.1187 105.96-68.16 197.14-184.29 197.14s-193.62-60.11-192.86-205.71c0.75057-145.94 96.773-306.47 184.29-308.57 93.346-2.3138 191.19 155.92 192.86 317.14z" fill="#f3c45d" stroke="#000" stroke-linecap="round" stroke-linejoin="round" stroke-width="5"/>
  <path d="m651.28 624.06c-5.8332 1.3117-2.4173 9.2885-0.6875 13 23.627 65.18 33.993 137.07 20.992 205.97-14.385 63.408-60.872 120.71-123.59 140.82-26.222 9.0912-54.319 11.094-81.875 11.031-4.4612 1.8288-2.537 7.7405 1.7588 8.1769 54.164 15.296 116.15 12.464 164.21-18.961 47.678-31.701 74.437-88.894 75.497-145.41 2.5989-57.928-10.878-115.44-31.615-169.2-6.3694-15.495-12.988-31.127-22.558-44.929-0.58365-0.49035-1.3903-0.67422-2.125-0.5z" fill="#775407" fill-opacity=".25098"/>
  <path d="m492.46 621.45c-5.6824 23.033-8.3684 31.259-26.437 34.345-12.454 2.127-25.009-9.6724-20.723-32.917 3.4376-18.644 17.619-37.468 33.58-40.059 17.599-2.8571 18.173 20.016 13.58 38.631z" fill="#fff" fill-opacity=".49804" stroke="#000" stroke-linecap="round" stroke-linejoin="round" stroke-width="2"/>
 </g>
</svg>
