<?xml version="1.0" encoding="utf-8"?>
<!-- Generator: Moho 12.4 build 22203 -->
<!DOCTYPE svg PUBLIC "-//W3C//DTD SVG 1.1//EN" "http://www.w3.org/Graphics/SVG/1.1/DTD/svg11.dtd">
<svg version="1.1" id="Frame_0" xmlns="http://www.w3.org/2000/svg" xmlns:xlink="http://www.w3.org/1999/xlink" width="1280px" height="720px">
<g id="Layer_3">
<path fill="#fde3a8" fill-rule="evenodd" stroke="none" d="M 61.834 213.915 C 61.834 213.915 61.834 213.915 61.834 213.915 C 74.386 214.925 91.188 215.645 103.673 217.281 C 117.927 219.149 136.987 221.968 150.804 225.938 C 166.485 230.444 186.653 238.948 201.300 246.136 C 214.362 252.546 231.210 262.336 243.141 270.663 C 248.388 274.325 254.778 280.016 259.765 284.025 C 259.765 284.025 259.765 284.025 259.765 284.025 C 353.183 271.009 571.126 240.642 571.158 240.637 C 566.678 234.082 561.019 225.115 556.225 218.785 C 550.887 211.736 537.288 196.206 537.286 196.204 C 539.799 194.019 542.985 190.900 545.663 188.920 C 549.174 186.324 554.188 183.316 558.046 181.272 C 562.065 179.142 567.817 177.113 571.886 175.080 C 575.123 173.463 579.792 171.711 582.448 169.253 C 584.761 167.112 586.662 163.219 588.275 160.512 C 591.427 155.222 594.047 147.225 597.745 142.302 C 600.668 138.409 605.168 133.418 609.399 131.011 C 613.339 128.770 619.436 126.890 623.967 127.005 C 627.284 127.089 631.738 128.490 634.529 130.283 C 636.416 131.494 638.099 134.107 639.629 135.746 C 639.629 135.746 639.629 135.746 639.629 135.746 C 641.814 141.646 644.036 149.817 646.912 155.413 C 650.792 162.960 657.883 171.906 662.937 178.722 C 667.013 184.219 672.358 191.675 677.142 196.568 C 679.851 199.339 684.669 201.831 686.975 204.945 C 688.547 207.067 689.968 210.398 690.618 212.958 C 691.294 215.623 691.060 219.359 691.250 222.103 C 691.250 222.103 691.250 222.103 691.250 222.103 C 678.140 281.404 647.556 419.754 647.551 419.774 C 636.291 429.112 621.369 441.673 610.016 450.899 C 600.399 458.715 577.716 476.642 577.712 476.644 C 577.811 475.218 578.079 473.318 578.040 471.889 C 577.858 465.024 576.697 455.797 574.597 449.259 C 573.263 445.108 568.185 436.217 568.184 436.216 C 582.466 427.932 601.507 416.888 615.789 408.605 C 615.789 408.605 615.789 408.605 615.789 408.605 C 568.143 402.672 456.987 388.832 456.971 388.830 C 449.818 393.176 439.747 398.195 433.127 403.317 C 428.063 407.237 417.735 418.105 417.734 418.107 C 403.518 411.859 384.505 403.660 370.347 397.281 C 356.486 391.035 324.340 376.037 324.335 376.035 C 328.655 373.925 334.840 371.819 338.736 369.002 C 342.824 366.046 346.941 360.563 350.457 356.946 C 350.457 356.946 350.457 356.946 350.457 356.946 C 342.922 355.137 332.989 352.159 325.340 350.918 C 304.362 347.512 275.876 347.401 254.677 345.894 C 254.677 345.894 254.677 345.894 254.677 345.894 C 244.470 352.830 231.361 362.878 220.654 369.014 C 211.702 374.144 199.147 379.873 189.634 383.869 C 176.982 389.184 159.837 395.762 146.599 399.379 C 135.205 402.492 119.605 404.990 107.933 406.806 C 98.215 408.318 75.387 410.738 75.384 410.738 C 77.285 406.741 79.536 401.263 81.719 397.413 C 85.726 390.348 92.067 381.521 96.941 375.024 C 103.581 366.172 112.690 354.481 120.506 346.649 C 128.466 338.673 141.258 330.433 149.361 322.603 C 151.197 320.829 154.206 318.730 155.132 316.351 C 156.022 314.065 156.217 310.375 155.132 308.176 C 154.544 306.983 152.798 306.129 151.766 305.290 C 145.450 300.159 136.403 294.114 130.124 288.939 C 116.727 277.895 98.782 263.027 87.322 249.984 C 78.577 240.030 61.836 213.918 61.834 213.915 C 61.834 213.915 61.834 213.915 61.834 213.915 Z"/>
<path fill="none" stroke="#fde3a8" stroke-width="1" stroke-linecap="round" stroke-linejoin="round" d="M 647.551 419.774 C 647.551 419.774 647.551 419.774 647.551 419.774 C 647.556 419.754 678.140 281.404 691.250 222.103 C 691.060 219.359 691.294 215.623 690.618 212.958 C 689.968 210.398 688.547 207.067 686.975 204.945 C 684.669 201.831 679.851 199.339 677.142 196.568 C 672.358 191.675 667.013 184.219 662.937 178.722 C 657.883 171.906 650.792 162.960 646.912 155.413 C 644.036 149.817 641.814 141.646 639.629 135.746 C 638.099 134.107 636.416 131.494 634.529 130.283 C 631.738 128.490 627.284 127.089 623.967 127.005 C 619.436 126.890 613.339 128.770 609.399 131.011 C 605.168 133.418 600.668 138.409 597.745 142.302 C 594.047 147.225 591.427 155.222 588.275 160.512 C 586.662 163.219 584.761 167.112 582.448 169.253 C 579.792 171.711 575.123 173.463 571.886 175.080 C 567.817 177.113 562.065 179.142 558.046 181.272 C 554.188 183.316 549.174 186.324 545.663 188.920 C 542.985 190.900 539.799 194.019 537.286 196.204 C 537.286 196.204 537.286 196.204 537.286 196.204 C 537.288 196.206 550.887 211.736 556.225 218.785 C 561.019 225.115 566.678 234.082 571.158 240.637 C 571.158 240.637 571.158 240.637 571.158 240.637 C 571.126 240.642 353.183 271.009 259.765 284.025 C 254.778 280.016 248.388 274.325 243.141 270.663 C 231.210 262.336 214.362 252.546 201.300 246.136 C 186.653 238.948 166.485 230.444 150.804 225.938 C 136.987 221.968 117.927 219.149 103.673 217.281 C 91.188 215.645 74.386 214.925 61.834 213.915 C 61.834 213.915 61.834 213.915 61.834 213.915 C 61.836 213.918 78.577 240.030 87.322 249.984 C 98.782 263.027 116.727 277.895 130.124 288.939 C 136.403 294.114 145.450 300.159 151.766 305.290 C 152.798 306.129 154.544 306.983 155.132 308.176 C 156.217 310.375 156.022 314.065 155.132 316.351 C 154.206 318.730 151.197 320.829 149.361 322.603 C 141.258 330.433 128.466 338.673 120.506 346.649 C 112.690 354.481 103.581 366.172 96.941 375.024 C 92.067 381.521 85.726 390.348 81.719 397.413 C 79.536 401.263 77.285 406.741 75.384 410.738 C 75.384 410.738 75.384 410.738 75.384 410.738 C 75.387 410.738 98.215 408.318 107.933 406.806 C 119.605 404.990 135.205 402.492 146.599 399.379 C 159.837 395.762 176.982 389.184 189.634 383.869 C 199.147 379.873 211.702 374.144 220.654 369.014 C 231.361 362.878 244.470 352.830 254.677 345.894 C 275.876 347.401 304.362 347.512 325.340 350.918 C 332.989 352.159 342.922 355.137 350.457 356.946 C 346.941 360.563 342.824 366.046 338.736 369.002 C 334.840 371.819 328.655 373.925 324.335 376.035 C 324.335 376.035 324.335 376.035 324.335 376.035 C 324.340 376.037 356.486 391.035 370.347 397.281 C 384.505 403.660 403.518 411.859 417.734 418.107 C 417.734 418.107 417.734 418.107 417.734 418.107 C 417.735 418.105 428.063 407.237 433.127 403.317 C 439.747 398.195 449.818 393.176 456.971 388.830 C 456.971 388.830 456.971 388.830 456.971 388.830 C 456.987 388.832 568.143 402.672 615.789 408.605 C 601.507 416.888 582.466 427.932 568.184 436.216 C 568.184 436.216 568.184 436.216 568.184 436.216 C 568.185 436.217 573.263 445.108 574.597 449.259 C 576.697 455.797 577.858 465.024 578.040 471.889 C 578.079 473.318 577.811 475.218 577.712 476.644 C 577.712 476.644 577.712 476.644 577.712 476.644 C 577.716 476.642 600.399 458.715 610.016 450.899 C 621.369 441.673 636.291 429.112 647.551 419.774 M 259.765 284.025 C 259.765 284.025 259.765 284.025 259.765 284.025 M 639.629 135.746 C 639.629 135.746 639.629 135.746 639.629 135.746 M 691.250 222.103 C 691.250 222.103 691.250 222.103 691.250 222.103 M 615.789 408.605 C 615.789 408.605 615.789 408.605 615.789 408.605 M 350.457 356.946 C 350.457 356.946 350.457 356.946 350.457 356.946 M 254.677 345.894 C 254.677 345.894 254.677 345.894 254.677 345.894 M 61.834 213.915 C 61.834 213.915 61.834 213.915 61.834 213.915 "/>
<g id="Layer_3">
<clipPath id="43a223e3-49f2-4bb3-a67b-46b0aa1375b2">
<path fill="#c4eff6" fill-rule="evenodd" stroke="none" d="M 1194.718 309.174 C 1194.960 306.072 1193.614 301.998 1193.141 298.923 C 1193.139 298.924 1181.304 310.925 1174.610 312.723 C 1174.153 312.845 1173.408 313.011 1173.033 312.723 C 1169.644 310.121 1173.684 302.769 1174.216 298.529 C 1174.917 292.933 1176.424 285.557 1177.370 279.998 C 1177.367 279.996 1160.054 267.954 1152.091 263.715 C 1134.651 254.433 1109.926 244.954 1091.246 238.522 C 1076.262 233.362 1055.808 227.894 1040.383 224.261 C 1018.666 219.147 989.333 213.999 967.300 210.486 C 944.225 206.806 913.352 202.352 890.066 200.412 C 860.935 197.984 821.913 196.673 792.684 197.054 C 769.644 197.354 738.947 199.349 716.009 201.531 C 691.094 203.901 657.990 208.359 633.309 212.509 C 594.885 218.969 544.393 231.495 506.133 238.866 C 473.007 245.249 428.673 252.878 395.432 258.634 C 376.109 261.980 350.357 266.521 330.972 269.484 C 316.417 271.709 297.048 275.258 282.354 276.208 C 274.458 276.718 263.836 277.130 255.976 276.208 C 252.442 275.793 247.936 273.971 244.391 273.652 C 239.054 273.172 231.747 273.212 226.550 274.518 C 221.929 275.680 215.936 278.348 212.174 281.273 C 209.642 283.242 206.845 286.635 205.245 289.414 C 204.441 290.811 203.911 292.931 203.340 294.438 C 202.840 298.268 201.802 303.345 201.674 307.205 C 201.493 312.640 201.217 320.131 202.943 325.288 C 205.271 332.247 210.929 340.914 216.584 345.591 C 220.917 349.176 228.256 351.852 233.715 353.205 C 244.533 355.886 259.754 353.562 270.832 354.791 C 287.863 356.681 310.265 361.500 326.983 365.260 C 358.426 372.331 399.356 385.761 430.720 393.177 C 466.063 401.534 513.463 411.724 549.347 417.316 C 578.934 421.927 618.661 426.584 648.557 428.292 C 677.260 429.933 715.656 429.673 744.390 428.714 C 783.694 427.402 836.079 423.781 875.123 419.080 C 913.086 414.509 963.501 406.315 1000.833 398.040 C 1030.689 391.423 1070.267 381.152 1099.125 371.034 C 1121.003 363.364 1150.963 353.658 1170.227 340.759 C 1177.059 336.184 1186.036 329.165 1190.381 322.185 C 1192.556 318.692 1194.398 313.276 1194.718 309.174 M 203.340 294.438 C 203.340 294.438 203.340 294.438 203.340 294.438 Z"/>
</clipPath>
<path fill="#c4eff6" fill-rule="evenodd" stroke="none" d="M 1194.718 309.174 C 1194.960 306.072 1193.614 301.998 1193.141 298.923 C 1193.139 298.924 1181.304 310.925 1174.610 312.723 C 1174.153 312.845 1173.408 313.011 1173.033 312.723 C 1169.644 310.121 1173.684 302.769 1174.216 298.529 C 1174.917 292.933 1176.424 285.557 1177.370 279.998 C 1177.367 279.996 1160.054 267.954 1152.091 263.715 C 1134.651 254.433 1109.926 244.954 1091.246 238.522 C 1076.262 233.362 1055.808 227.894 1040.383 224.261 C 1018.666 219.147 989.333 213.999 967.300 210.486 C 944.225 206.806 913.352 202.352 890.066 200.412 C 860.935 197.984 821.913 196.673 792.684 197.054 C 769.644 197.354 738.947 199.349 716.009 201.531 C 691.094 203.901 657.990 208.359 633.309 212.509 C 594.885 218.969 544.393 231.495 506.133 238.866 C 473.007 245.249 428.673 252.878 395.432 258.634 C 376.109 261.980 350.357 266.521 330.972 269.484 C 316.417 271.709 297.048 275.258 282.354 276.208 C 274.458 276.718 263.836 277.130 255.976 276.208 C 252.442 275.793 247.936 273.971 244.391 273.652 C 239.054 273.172 231.747 273.212 226.550 274.518 C 221.929 275.680 215.936 278.348 212.174 281.273 C 209.642 283.242 206.845 286.635 205.245 289.414 C 204.441 290.811 203.911 292.931 203.340 294.438 C 202.840 298.268 201.802 303.345 201.674 307.205 C 201.493 312.640 201.217 320.131 202.943 325.288 C 205.271 332.247 210.929 340.914 216.584 345.591 C 220.917 349.176 228.256 351.852 233.715 353.205 C 244.533 355.886 259.754 353.562 270.832 354.791 C 287.863 356.681 310.265 361.500 326.983 365.260 C 358.426 372.331 399.356 385.761 430.720 393.177 C 466.063 401.534 513.463 411.724 549.347 417.316 C 578.934 421.927 618.661 426.584 648.557 428.292 C 677.260 429.933 715.656 429.673 744.390 428.714 C 783.694 427.402 836.079 423.781 875.123 419.080 C 913.086 414.509 963.501 406.315 1000.833 398.040 C 1030.689 391.423 1070.267 381.152 1099.125 371.034 C 1121.003 363.364 1150.963 353.658 1170.227 340.759 C 1177.059 336.184 1186.036 329.165 1190.381 322.185 C 1192.556 318.692 1194.398 313.276 1194.718 309.174 M 203.340 294.438 C 203.340 294.438 203.340 294.438 203.340 294.438 Z"/>
<path fill="none" stroke="#c4eff6" stroke-width="1" stroke-linecap="round" stroke-linejoin="round" d="M 1193.141 298.923 C 1193.141 298.923 1193.141 298.923 1193.141 298.923 C 1193.614 301.998 1194.960 306.072 1194.718 309.174 C 1194.398 313.276 1192.556 318.692 1190.381 322.185 C 1186.036 329.165 1177.059 336.184 1170.227 340.759 C 1150.963 353.658 1121.003 363.364 1099.125 371.034 C 1070.267 381.152 1030.689 391.423 1000.833 398.040 C 963.501 406.315 913.086 414.509 875.123 419.080 C 836.079 423.781 783.694 427.402 744.390 428.714 C 715.656 429.673 677.260 429.933 648.557 428.292 C 618.661 426.584 578.934 421.927 549.347 417.316 C 513.463 411.724 466.063 401.534 430.720 393.177 C 399.356 385.761 358.426 372.331 326.983 365.260 C 310.265 361.500 287.863 356.681 270.832 354.791 C 259.754 353.562 244.533 355.886 233.715 353.205 C 228.256 351.852 220.917 349.176 216.584 345.591 C 210.929 340.914 205.271 332.247 202.943 325.288 C 201.217 320.131 201.493 312.640 201.674 307.205 C 201.802 303.345 202.840 298.268 203.340 294.438 C 203.340 294.438 203.340 294.438 203.340 294.438 C 203.911 292.931 204.441 290.811 205.245 289.414 C 206.845 286.635 209.642 283.242 212.174 281.273 C 215.936 278.348 221.929 275.680 226.550 274.518 C 231.747 273.212 239.054 273.172 244.391 273.652 C 247.936 273.971 252.442 275.793 255.976 276.208 C 263.836 277.130 274.458 276.718 282.354 276.208 C 297.048 275.258 316.417 271.709 330.972 269.484 C 350.357 266.521 376.109 261.980 395.432 258.634 C 428.673 252.878 473.007 245.249 506.133 238.866 C 544.393 231.495 594.885 218.969 633.309 212.509 C 657.990 208.359 691.094 203.901 716.009 201.531 C 738.947 199.349 769.644 197.354 792.684 197.054 C 821.913 196.673 860.935 197.984 890.066 200.412 C 913.352 202.352 944.225 206.806 967.300 210.486 C 989.333 213.999 1018.666 219.147 1040.383 224.261 C 1055.808 227.894 1076.262 233.362 1091.246 238.522 C 1109.926 244.954 1134.651 254.433 1152.091 263.715 C 1160.054 267.954 1177.367 279.996 1177.370 279.998 C 1177.370 279.998 1177.370 279.998 1177.370 279.998 C 1176.424 285.557 1174.917 292.933 1174.216 298.529 C 1173.684 302.769 1169.644 310.121 1173.033 312.723 C 1173.408 313.011 1174.153 312.845 1174.610 312.723 C 1181.304 310.925 1193.139 298.924 1193.141 298.923 "/>
<path fill="#e5f1ff" fill-rule="evenodd" stroke="none" d="M 911.740 340.210 C 931.226 337.147 956.927 331.465 976.293 327.716 C 976.288 327.716 942.764 327.422 928.398 327.716 C 878.588 328.735 812.240 332.445 762.504 335.352 C 706.860 338.604 632.796 344.914 577.175 348.540 C 549.928 350.316 513.554 351.977 486.324 353.990 C 469.261 355.252 446.511 357.032 429.506 358.917 C 421.999 359.749 412.033 361.216 404.545 362.201 C 443.944 363.446 496.456 366.199 535.874 366.350 C 583.429 366.532 646.870 365.174 694.344 362.389 C 735.299 359.986 789.732 354.264 830.528 349.928 C 854.928 347.335 887.500 344.021 911.740 340.210 M 404.545 362.201 C 404.545 362.201 404.545 362.201 404.545 362.201 Z" clip-path="url(#43a223e3-49f2-4bb3-a67b-46b0aa1375b2)"/>
<path fill="none" stroke="#e5f1ff" stroke-width="1" stroke-linecap="round" stroke-linejoin="round" d="M 976.293 327.716 C 976.293 327.716 976.293 327.716 976.293 327.716 C 956.927 331.465 931.226 337.147 911.740 340.210 C 887.500 344.021 854.928 347.335 830.528 349.928 C 789.732 354.264 735.299 359.986 694.344 362.389 C 646.870 365.174 583.429 366.532 535.874 366.350 C 496.456 366.199 443.944 363.446 404.545 362.201 C 404.545 362.201 404.545 362.201 404.545 362.201 C 412.033 361.216 421.999 359.749 429.506 358.917 C 446.511 357.032 469.261 355.252 486.324 353.990 C 513.554 351.977 549.928 350.316 577.175 348.540 C 632.796 344.914 706.860 338.604 762.504 335.352 C 812.240 332.445 878.588 328.735 928.398 327.716 C 942.764 327.422 976.288 327.716 976.293 327.716 " clip-path="url(#43a223e3-49f2-4bb3-a67b-46b0aa1375b2)"/>
<path fill="#6cb9f1" fill-rule="evenodd" stroke="none" d="M 880.523 285.148 C 910.777 283.280 951.207 282.693 981.500 281.641 C 981.507 281.638 1032.058 256.608 1053.726 245.879 C 1053.720 245.878 1014.487 242.053 997.628 240.970 C 976.618 239.621 948.554 238.593 927.505 238.165 C 902.687 237.661 869.567 237.261 844.760 238.165 C 828.678 238.751 807.282 240.536 791.248 241.911 C 773.256 243.455 749.302 245.937 731.364 248.017 C 714.626 249.957 692.339 252.816 675.664 255.244 C 658.664 257.719 636.121 261.831 619.131 264.378 C 602.569 266.861 580.415 269.684 563.832 272.031 C 544.276 274.799 518.280 279.080 498.673 281.464 C 474.222 284.438 441.517 287.562 416.957 289.437 C 392.719 291.287 360.346 293.086 336.052 293.905 C 317.972 294.516 293.847 294.635 275.757 294.720 C 256.365 294.812 230.508 294.579 211.116 294.449 C 206.267 294.416 199.801 294.350 194.951 294.308 C 194.952 294.309 196.904 307.582 197.740 313.272 C 200.161 317.489 202.432 323.830 205.809 327.328 C 209.953 331.619 217.277 335.407 222.806 337.648 C 229.891 340.518 240.104 342.206 247.694 343.111 C 269.936 345.764 299.974 343.910 322.359 343.111 C 346.444 342.252 378.495 339.633 402.487 337.344 C 437.382 334.016 483.678 327.465 518.488 323.340 C 553.053 319.244 599.157 313.933 633.734 309.939 C 663.159 306.540 702.363 301.728 731.827 298.682 C 776.383 294.077 835.815 287.908 880.523 285.148 M 197.740 313.272 C 197.740 313.272 197.740 313.272 197.740 313.272 Z" clip-path="url(#43a223e3-49f2-4bb3-a67b-46b0aa1375b2)"/>
<path fill="none" stroke="#6cb9f1" stroke-width="1" stroke-linecap="round" stroke-linejoin="round" d="M 981.500 281.641 C 981.500 281.641 981.500 281.641 981.500 281.641 C 951.207 282.693 910.777 283.280 880.523 285.148 C 835.815 287.908 776.383 294.077 731.827 298.682 C 702.363 301.728 663.159 306.540 633.734 309.939 C 599.157 313.933 553.053 319.244 518.488 323.340 C 483.678 327.465 437.382 334.016 402.487 337.344 C 378.495 339.633 346.444 342.252 322.359 343.111 C 299.974 343.910 269.936 345.764 247.694 343.111 C 240.104 342.206 229.891 340.518 222.806 337.648 C 217.277 335.407 209.953 331.619 205.809 327.328 C 202.432 323.830 200.161 317.489 197.740 313.272 C 197.740 313.272 197.740 313.272 197.740 313.272 C 196.904 307.582 194.952 294.309 194.951 294.308 C 194.951 294.308 194.951 294.308 194.951 294.308 C 199.801 294.350 206.267 294.416 211.116 294.449 C 230.508 294.579 256.365 294.812 275.757 294.720 C 293.847 294.635 317.972 294.516 336.052 293.905 C 360.346 293.086 392.719 291.287 416.957 289.437 C 441.517 287.562 474.222 284.438 498.673 281.464 C 518.280 279.080 544.276 274.799 563.832 272.031 C 580.415 269.684 602.569 266.861 619.131 264.378 C 636.121 261.831 658.664 257.719 675.664 255.244 C 692.339 252.816 714.626 249.957 731.364 248.017 C 749.302 245.937 773.256 243.455 791.248 241.911 C 807.282 240.536 828.678 238.751 844.760 238.165 C 869.567 237.261 902.687 237.661 927.505 238.165 C 948.554 238.593 976.618 239.621 997.628 240.970 C 1014.487 242.053 1053.720 245.878 1053.726 245.879 C 1053.726 245.879 1053.726 245.879 1053.726 245.879 C 1032.058 256.608 981.507 281.638 981.500 281.641 " clip-path="url(#43a223e3-49f2-4bb3-a67b-46b0aa1375b2)"/>
<path fill="#33717c" fill-rule="evenodd" stroke="none" d="M 997.074 245.417 C 1010.686 246.085 1028.831 247.071 1042.441 247.780 C 1042.443 247.779 1054.680 240.171 1059.926 236.911 C 1059.921 236.909 1023.093 226.650 1006.998 223.678 C 975.713 217.902 933.374 213.688 901.614 211.864 C 859.718 209.458 803.614 209.250 761.731 211.864 C 741.073 213.153 713.664 216.742 693.208 219.898 C 666.577 224.006 631.546 232.198 605.028 236.982 C 554.708 246.062 487.603 258.400 436.873 264.802 C 408.602 268.370 370.631 270.552 342.285 273.457 C 330.571 274.658 315.018 276.921 303.278 277.819 C 289.381 278.880 270.788 279.249 256.857 279.675 C 240.929 280.163 219.683 280.455 203.752 280.789 C 203.751 280.791 201.672 291.707 200.781 296.387 C 215.471 296.791 235.054 297.621 249.750 297.735 C 275.610 297.936 310.100 297.466 335.943 296.504 C 360.596 295.586 393.414 293.210 418.031 291.578 C 441.074 290.051 471.850 288.501 494.810 286.011 C 521.783 283.087 557.505 277.220 584.299 272.961 C 610.362 268.818 644.890 261.935 670.992 258.046 C 695.248 254.432 727.691 250.248 752.091 247.792 C 774.640 245.522 804.778 243.103 827.419 242.109 C 850.366 241.102 881.010 240.794 903.976 241.164 C 931.931 241.613 969.149 244.046 997.074 245.417 M 200.781 296.387 C 200.781 296.387 200.781 296.387 200.781 296.387 Z" clip-path="url(#43a223e3-49f2-4bb3-a67b-46b0aa1375b2)"/>
<path fill="none" stroke="#33717c" stroke-width="1" stroke-linecap="round" stroke-linejoin="round" d="M 1042.441 247.780 C 1042.441 247.780 1042.441 247.780 1042.441 247.780 C 1028.831 247.071 1010.686 246.085 997.074 245.417 C 969.149 244.046 931.931 241.613 903.976 241.164 C 881.010 240.794 850.366 241.102 827.419 242.109 C 804.778 243.103 774.640 245.522 752.091 247.792 C 727.691 250.248 695.248 254.432 670.992 258.046 C 644.890 261.935 610.362 268.818 584.299 272.961 C 557.505 277.220 521.783 283.087 494.810 286.011 C 471.850 288.501 441.074 290.051 418.031 291.578 C 393.414 293.210 360.596 295.586 335.943 296.504 C 310.100 297.466 275.610 297.936 249.750 297.735 C 235.054 297.621 215.471 296.791 200.781 296.387 C 200.781 296.387 200.781 296.387 200.781 296.387 C 201.672 291.707 203.751 280.791 203.752 280.789 C 203.752 280.789 203.752 280.789 203.752 280.789 C 219.683 280.455 240.929 280.163 256.857 279.675 C 270.788 279.249 289.381 278.880 303.278 277.819 C 315.018 276.921 330.571 274.658 342.285 273.457 C 370.631 270.552 408.602 268.370 436.873 264.802 C 487.603 258.400 554.708 246.062 605.028 236.982 C 631.546 232.198 666.577 224.006 693.208 219.898 C 713.664 216.742 741.073 213.153 761.731 211.864 C 803.614 209.250 859.718 209.458 901.614 211.864 C 933.374 213.688 975.713 217.902 1006.998 223.678 C 1023.093 226.650 1059.921 236.909 1059.926 236.911 C 1059.926 236.911 1059.926 236.911 1059.926 236.911 C 1054.680 240.171 1042.443 247.779 1042.441 247.780 " clip-path="url(#43a223e3-49f2-4bb3-a67b-46b0aa1375b2)"/>
<path fill="#34495c" fill-rule="evenodd" stroke="none" d="M 1043.499 236.500 C 1050.816 238.293 1060.335 241.551 1067.551 243.715 C 1067.552 243.714 1074.847 235.297 1077.973 231.690 C 1077.965 231.688 1024.267 217.273 1000.913 212.597 C 973.033 207.015 935.471 201.480 907.208 198.367 C 894.282 196.943 876.971 195.728 863.980 195.145 C 828.699 193.562 781.544 192.473 746.263 194.056 C 719.137 195.274 683.005 198.610 656.169 202.749 C 623.093 207.851 579.918 219.606 547.119 226.256 C 517.385 232.285 477.695 240.161 447.770 245.157 C 421.690 249.511 386.546 252.991 360.538 257.757 C 343.848 260.816 322.059 267.279 305.290 269.873 C 293.957 271.626 278.706 273.647 267.238 273.526 C 260.747 273.457 252.202 271.588 245.719 271.243 C 238.882 270.880 229.582 269.767 222.896 271.243 C 220.199 271.839 216.597 273.134 214.418 274.830 C 211.547 277.066 209.397 281.677 207.245 284.611 C 223.754 284.172 245.771 283.769 262.274 283.146 C 284.366 282.313 313.830 281.150 335.876 279.503 C 378.780 276.297 435.883 270.454 478.525 264.740 C 515.333 259.807 564.083 250.996 600.686 244.720 C 618.602 241.648 642.384 236.941 660.337 234.098 C 691.966 229.089 734.190 222.337 766.102 219.663 C 795.838 217.172 835.682 215.884 865.516 216.456 C 899.029 217.099 943.712 220.197 976.956 224.474 C 997.077 227.062 1023.796 231.672 1043.499 236.500 M 207.245 284.611 C 207.245 284.611 207.245 284.611 207.245 284.611 Z" clip-path="url(#43a223e3-49f2-4bb3-a67b-46b0aa1375b2)"/>
<path fill="none" stroke="#34495c" stroke-width="1" stroke-linecap="round" stroke-linejoin="round" d="M 1067.551 243.715 C 1067.551 243.715 1067.551 243.715 1067.551 243.715 C 1060.335 241.551 1050.816 238.293 1043.499 236.500 C 1023.796 231.672 997.077 227.062 976.956 224.474 C 943.712 220.197 899.029 217.099 865.516 216.456 C 835.682 215.884 795.838 217.172 766.102 219.663 C 734.190 222.337 691.966 229.089 660.337 234.098 C 642.384 236.941 618.602 241.648 600.686 244.720 C 564.083 250.996 515.333 259.807 478.525 264.740 C 435.883 270.454 378.780 276.297 335.876 279.503 C 313.830 281.150 284.366 282.313 262.274 283.146 C 245.771 283.769 223.754 284.172 207.245 284.611 C 207.245 284.611 207.245 284.611 207.245 284.611 C 209.397 281.677 211.547 277.066 214.418 274.830 C 216.597 273.134 220.199 271.839 222.896 271.243 C 229.582 269.767 238.882 270.880 245.719 271.243 C 252.202 271.588 260.747 273.457 267.238 273.526 C 278.706 273.647 293.957 271.626 305.290 269.873 C 322.059 267.279 343.848 260.816 360.538 257.757 C 386.546 252.991 421.690 249.511 447.770 245.157 C 477.695 240.161 517.385 232.285 547.119 226.256 C 579.918 219.606 623.093 207.851 656.169 202.749 C 683.005 198.610 719.137 195.274 746.263 194.056 C 781.544 192.473 828.699 193.562 863.980 195.145 C 876.971 195.728 894.282 196.943 907.208 198.367 C 935.471 201.480 973.033 207.015 1000.913 212.597 C 1024.267 217.273 1077.965 231.688 1077.973 231.690 C 1077.973 231.690 1077.973 231.690 1077.973 231.690 C 1074.847 235.297 1067.552 243.714 1067.551 243.715 " clip-path="url(#43a223e3-49f2-4bb3-a67b-46b0aa1375b2)"/>
<path fill="#82cfe1" fill-rule="evenodd" stroke="#82cfe1" stroke-width="1" stroke-linecap="round" stroke-linejoin="round" d="M 1051.260 387.749 C 1051.260 387.749 1051.260 387.749 1051.260 387.749 C 1044.846 386.038 1036.123 384.301 1029.879 382.047 C 1015.607 376.895 996.465 369.216 984.267 360.191 C 974.539 352.993 962.525 341.346 956.710 330.733 C 952.240 322.577 948.745 310.101 948.633 300.801 C 948.535 292.745 949.852 281.018 954.809 274.668 C 958.226 270.292 965.903 267.923 970.964 265.641 C 980.702 261.250 994.693 257.984 1004.698 254.238 C 1014.514 250.561 1027.177 244.577 1037.006 240.934 C 1043.769 238.428 1052.744 234.765 1059.813 233.332 C 1069.895 231.288 1083.759 231.669 1094.022 230.957 C 1094.022 230.957 1094.022 230.957 1094.022 230.957 C 1118.538 243.072 1153.702 255.156 1175.744 271.342 C 1181.837 275.817 1189.965 282.406 1193.798 288.922 C 1196.062 292.770 1197.731 298.725 1198.075 303.176 C 1198.518 308.924 1197.712 316.981 1195.224 322.181 C 1189.786 333.546 1175.931 344.893 1165.291 351.639 C 1134.985 370.854 1051.272 387.745 1051.260 387.749 C 1051.260 387.749 1051.260 387.749 1051.260 387.749 Z" clip-path="url(#43a223e3-49f2-4bb3-a67b-46b0aa1375b2)"/>
<path fill="#e5f1ff" fill-rule="evenodd" stroke="#e5f1ff" stroke-width="1" stroke-linecap="round" stroke-linejoin="round" d="M 1082.143 251.387 C 1097.922 251.387 1110.651 264.116 1110.651 279.895 C 1110.651 295.673 1097.922 308.402 1082.143 308.402 C 1066.365 308.402 1053.636 295.673 1053.636 279.895 C 1053.636 264.116 1066.365 251.387 1082.143 251.387 Z" clip-path="url(#43a223e3-49f2-4bb3-a67b-46b0aa1375b2)"/>
<path fill="#346e7c" fill-rule="evenodd" stroke="#346e7c" stroke-width="1" stroke-linecap="round" stroke-linejoin="round" d="M 1081.893 262.275 C 1091.623 262.276 1099.472 270.125 1099.472 279.855 C 1099.472 289.586 1091.623 297.435 1081.893 297.435 C 1072.163 297.435 1064.313 289.586 1064.313 279.855 C 1064.313 270.125 1072.162 262.275 1081.893 262.275 Z" clip-path="url(#43a223e3-49f2-4bb3-a67b-46b0aa1375b2)"/>
<path fill="#fde3a8" fill-rule="evenodd" stroke="#fde3a8" stroke-width="1" stroke-linecap="round" stroke-linejoin="round" d="M 955.869 375.097 C 950.004 377.916 942.049 382.469 938.256 387.756 C 937.023 389.476 937.352 392.945 935.779 394.361 C 928.080 401.292 911.734 397.736 901.380 397.388 C 890.270 397.015 875.128 395.670 864.779 391.609 C 854.697 387.653 841.910 379.676 834.783 371.520 C 830.434 366.543 825.100 358.572 824.601 351.981 C 824.387 349.165 825.138 344.952 827.078 342.900 C 829.338 340.509 834.275 340.037 837.535 339.597 C 846.477 338.390 858.622 340.367 867.531 341.799 C 897.272 346.578 936.454 356.975 964.400 368.217 C 966.112 368.906 968.252 370.144 969.903 370.970 C 969.903 370.970 969.903 370.970 969.903 370.970 C 969.821 370.970 959.824 373.196 955.869 375.097 Z" clip-path="url(#43a223e3-49f2-4bb3-a67b-46b0aa1375b2)"/>
</g>
</g>
</svg>
