<?xml version="1.0" encoding="UTF-8"?>
<svg id="Layer_1" data-name="Layer 1" xmlns="http://www.w3.org/2000/svg" viewBox="0 0 541.27 284.87">
  <defs>
    <style>
      .cls-1 {
        letter-spacing: .02em;
      }

      .cls-2 {
        fill: #fff;
      }

      .cls-3 {
        font-family: MyriadPro-Regular, 'Myriad Pro';
        font-size: 36px;
      }

      .cls-4 {
        letter-spacing: 0em;
      }
    </style>
  </defs>
  <g>
    <polygon class="cls-2" points="253.57 218.34 205.87 283.74 162.18 215.78 108.68 276.48 78.3 202.76 1.89 220.62 60.27 170.78 36.08 94.95 115.88 117.32 130.92 36 201.23 80.05 233.8 3.71 290.35 63.25 329.81 1.26 347.26 73.1 402.85 24.37 401.67 98.26 467.99 65.73 442.75 134.02 512.82 146.51 445.63 162.48 491.52 214.82 425.39 192.07 440.69 260.49 390.49 211.17 378.7 280.68 347.35 217.46 300.79 284.01 253.57 218.34"/>
    <path d="M329.6,2.52l16.97,69.9,.39,1.6,1.24-1.09,54.13-47.45-1.15,71.95-.03,1.63,1.47-.72,64.47-31.62-24.61,66.55-.41,1.12,1.18,.21,67.11,11.97-64.04,15.22-1.62,.38,1.09,1.25,44.1,50.3-63.5-21.84-1.69-.58,.39,1.75,14.74,65.89-48.32-47.46-1.37-1.34-.32,1.89-11.37,67.04-30.3-61.08-.75-1.51-.97,1.38-45.67,65.27-46.41-64.53-.81-1.12-.81,1.12-46.86,64.26-42.94-66.79-.72-1.11-.88,.99-52.54,59.61-29.91-72.59-.32-.79-.83,.19L3.78,219.67l56.57-48.3,.51-.43-.2-.63-23.81-74.63,78.38,21.98,1.05,.3,.2-1.08,14.81-80.06,69.2,43.35,.99,.62,.46-1.08L233.96,4.61l55.58,58.52,.88,.93,.69-1.08L329.6,2.52m.42-2.52l-39.75,62.44L233.64,2.82l-32.64,76.5-70.44-44.13-15.07,81.5-80.17-22.48,24.38,76.4L0,221.58l78-18.23,30.53,74.07,53.6-60.81,43.73,68.02,47.72-65.43,47.23,65.68,46.48-66.43,31.66,63.83,11.88-70.08,50.73,49.84-15.48-69.19,67.06,23.07-46.58-53.13,68.72-16.33-71.85-12.81,25.47-68.9-66.71,32.72,1.19-74.2-55.82,48.93L330.02,0h0Z"/>
  </g>
  <text class="cls-3" transform="translate(86.04 166.57)"><tspan x="0" y="0">MEOOOO</tspan><tspan class="cls-1" x="170.67" y="0">WW</tspan><tspan class="cls-4" x="263.77" y="0">!!!</tspan></text>
</svg>