<?xml version="1.0" encoding="UTF-8"?>
<svg viewBox="0 0 128.47108 112.08613" xmlns="http://www.w3.org/2000/svg">
 <g transform="translate(-1466.6 536.23)">
  <path d="m1549.6-432.13s-3.7198 6.8849 1.912 6.483 16.914-12.355 21.882-7.6186c2.4794 2.3641 5.3781-15.981 5.3781-15.981s17.258 8.5898 15.086 6.4875c-14.702-14.23-14.76-22.331-14.76-22.331l-29.498 32.96z" fill="#481800"/>
  <path d="m1554.8-442.17c-0.053-2.4155 1.6731-0.0761 1.9154 0.54156 0.6763 1.7245-4.2911 3.5278-2.894 4.7442 0.7887 0.68671 2.6853-0.97331 2.428-1.9869-0.078-0.3055-0.8072-0.46799-0.9289-0.17723-1.295 3.0945 5.0259 6.5226 8.2823 5.717 3.0562-0.75611 3.4897-5.3494 4.3746-8.3708 0.5185-1.77 2.2852-5.0978 0.4879-5.5117-3.1682-0.72964-3.2621 5.8688-3.4764 9.1129-0.1309 1.9824 3.232 5.0978 1.3734 5.7998-1.4946 0.56449-1.3444-2.9165-2.2545-4.2295-1.8468-2.6642-6.2773-4.0572-6.4309-7.2953-0.082-1.7348 2.6126-2.5388 3.0597-4.217 0.2951-1.1074 0.7787-3.3882-0.367-3.4186-7.9085-0.20983 4.0575 24.501-3.7811 23.431-5.6538-0.7717 0.3709-11.516 1.9016-17.013 0.5665-2.0345 1.2612-4.1644 2.6516-5.754 1.1726-1.3406 2.7395-3.0372 4.5119-2.8621 2.9567 0.29208 4.4441 3.9604 6.4469 6.1549 2.0914 2.2916 2.8559 8.3075 5.7867 7.2899 1.6138-0.56029 0.021-3.4165 0.013-5.1248-0.017-3.7892-0.2606-7.5801-0.1285-11.367 0.065-1.8634 2.0584-4.6275 0.4527-5.5753-1.3646-0.80541-3.1095 1.2909-3.9621 2.6265-1.7607 2.7581-3.4919 7.1276-1.4759 9.7049 1.4582 1.8643 6.1674 2.8423 7.0703 0.65444 0.664-1.6088-2.33-2.9315-4.0252-3.3256-3.4958-0.81271-9.8794-1.0464-10.474 2.4929-0.673 4.003 6.8321 8.6916 10.273 6.5386 1.6529-1.0342 0.1171-4.0259-0.6664-5.8113-1.1476-2.6149-2.8077-5.8986-5.6034-6.4802-1.4502-0.30172-3.1492 0.7148-4.006 1.9231-1.5853 2.236-0.9469 5.4323-0.9052 8.1729 0.075 4.9349 6.8258 13.317 2.0767 14.66-4.354 1.2316-0.9578-13.206-5.4183-12.446-3.4699 0.59114-0.744 7.0116-0.7714 10.531-0.01 1.1706 1.3651 3.3735 0.2021 3.506-5.2027 0.59271-5.7582-11.273-2.6469-15.484 2.4287-3.2876 9.5542-4.7259 12.16-1.5771 1.053 1.2723-1.3747 3.0649-1.5444 4.7076-0.2834 2.7423 3.419 7.063 0.9165 8.2198-0.6858 0.31701-1.1202-1.0315-1.5532-1.6507-1.4066-2.0117-2.1063-4.4387-3.3053-6.5808-0.305-0.54488-1.4629-1.1873-0.9873-1.592 3.4013-2.8944 6.3296 11.17 10.11 8.7924 0.3719-0.23393-0.1238-0.89374-0.3489-1.2711-1.2848-2.154-3.7333-3.3604-5.4379-5.2002-0.062-0.0665-0.2386-0.14827-0.1725-0.21041 1.9233-1.8088 3.2043 5.8401 5.8057 5.3884 1.7627-0.30612 2.1146-3.0109 2.4725-4.7638 0.6269-3.0702-0.3294-6.2636-0.7133-9.3736-0.2888-2.3396 0.9517-5.9948-1.1943-6.9706-1.7803-0.80946-3.6957 1.6058-5.009 3.0549-1.6788 1.8524-2.4379 4.3937-3.2583 6.7553-0.631 1.8164-1.007 3.7238-1.255 5.6307-0.2849 2.1911 0.4556 4.5332-0.2604 6.6236-0.2633 0.7689-0.6181 1.839-1.4179 1.9836-5.2868 0.95532-8.554-11.386-13.369-9.0023-2.161 1.0697-0.532 4.8122-0.4256 7.2211 0.1043 2.3588-0.9978 5.8119 1.0387 7.0067 3.593 2.1081 8.5341-1.7066 11.685-4.4311 1.9254-1.6646 3.0102-4.2264 3.7108-6.6732 1.2749-4.4524 4.683-11.516 0.6982-13.876-1.8975-1.1239-4.0762 1.9069-5.635 3.4669-1.7783 1.7796-3.9151 3.9156-3.9502 6.4311-0.054 3.8592 1.9436 9.6319 5.7825 10.032 3.0789 0.32057 4.2426-4.5162 6.1958-6.9178 1.514-1.8617 2.6891-3.9907 4.2711-5.795 1.2884-1.4695 2.2949-3.7544 4.2243-4.0657 2.6416-0.42617 4.8125 2.3413 7.2407 3.4653 2.4139 1.1174 4.6474 2.9081 7.2841 3.2589 0.6593 0.0877 1.7495 0.31685 1.9709-0.31025 0.8757-2.4811-3.5989-0.25655-5.299-5.8503-1.0426-3.4303-6.0643-3.9844-8.4344-6.6745-1.0036-1.1391-2.6209-2.2652-2.3538-3.899" fill="none" stroke="#581d00" stroke-width="2.6444"/>
  <path d="m1567.9-529.89c22.652 27.003 19.371 67.063-7.3263 89.458s-66.717 18.659-89.369-8.3434c-0.7896-17.635 83.798-79.761 96.695-81.115z" fill="#dd9526"/>
  <path d="m1493.4-447.66c12.898-3.7795 23.849-5.5507 32.977-14.833-0.9064 23.817 10.092 28.085 42.713 12.414-35.765 37.269-52.724 18.452-75.689 2.4189z" fill="#cc7c1c"/>
  <path d="m1570.5-526.01c0.042 12.386-0.6294 9.5579-4.2423 19.06 19.112-2.0382 15.443 38.296 2.3937 56.87 21.056-30.144 15.327-54.52 1.8486-75.93z" fill="#f9d896"/>
  <path transform="matrix(-.61217 .51353 .19211 .22901 1376.1 -457.02)" d="m-84 225.5c0 46.668-35.593 84.5-79.5 84.5s-79.5-37.832-79.5-84.5 35.593-84.5 79.5-84.5 79.5 37.832 79.5 84.5z" fill="#ffe1b8" stroke="#9b681b" stroke-width="4.3779"/>
  <path transform="matrix(-.4764 .39964 .1495 .17822 1407.4 -465.94)" d="m-84 225.5c0 46.668-35.593 84.5-79.5 84.5s-79.5-37.832-79.5-84.5 35.593-84.5 79.5-84.5 79.5 37.832 79.5 84.5z" fill="#e4c9a4"/>
  <path transform="matrix(-.41837 .3443 .13072 .15286 1420.6 -470.67)" d="m-84 225.5c0 46.668-35.593 84.5-79.5 84.5s-79.5-37.832-79.5-84.5 35.593-84.5 79.5-84.5 79.5 37.832 79.5 84.5z" fill="#ffe1b8"/>
  <path transform="matrix(-.30035 .25196 .09426 .11236 1446.2 -477.88)" d="m-84 225.5c0 46.668-35.593 84.5-79.5 84.5s-79.5-37.832-79.5-84.5 35.593-84.5 79.5-84.5 79.5 37.832 79.5 84.5z" fill="#e4c9a4"/>
  <path transform="matrix(-.26377 .21707 .08242 .09637 1454.5 -480.86)" d="m-84 225.5c0 46.668-35.593 84.5-79.5 84.5s-79.5-37.832-79.5-84.5 35.593-84.5 79.5-84.5 79.5 37.832 79.5 84.5z" fill="#ffe1b8"/>
  <path transform="matrix(-.14999 .12582 .04707 .05611 1479.7 -488.17)" d="m-84 225.5c0 46.668-35.593 84.5-79.5 84.5s-79.5-37.832-79.5-84.5 35.593-84.5 79.5-84.5 79.5 37.832 79.5 84.5z" fill="#e4c9a4"/>
  <path transform="matrix(-.13172 .1084 .04116 .04813 1483.9 -489.66)" d="m-84 225.5c0 46.668-35.593 84.5-79.5 84.5s-79.5-37.832-79.5-84.5 35.593-84.5 79.5-84.5 79.5 37.832 79.5 84.5z" fill="#ffe1b8"/>
  <path d="m1476.8-444.5c12.177 2.2655 14.513-1.5096 24.51-3.3573 4.8938 11.517 16.433 19.94 49.96 13.879-33.435 15.301-55.828 6.5822-74.469-10.522z" fill="#b55f14"/>
  <path d="m1516.4-456.13-5.4379 2.8504c14.528 8.757 30.078 14.427 48.246 12.192-13.289 0.64754-26.996-1.114-42.808-15.042z" fill="#9b681b"/>
  <path d="m1540.2-473.56-3.3036 2.4398c15.487 6.8516 21.458 9.0703 33.389 19.232-10.567-10.856-13.146-12.509-30.086-21.672z" fill="#cc7c1c"/>
  <path d="m1526.5-426.12c-19.266 1.9042-39.175-5.0467-53.257-20.288-0.9073-0.58209-1.6981-1.2894-2.3816-2.1043-8.9654-10.687 5.5564-37.619 32.435-60.166s55.918-32.176 64.884-21.488c0.6854 0.817 1.2384 1.7292 1.6543 2.727 0.01 0.0219 0.021 0.0429 0.03 0.0649 20.419 26.923 16.559 65.225-9.3201 86.934-10.012 8.3983-21.903 13.12-34.044 14.32z" fill="none" stroke="#581d00" stroke-width="3.3894"/>
  <path d="m1491.9-446.41-3.3035 2.4398c10.62 10.426 26.206 18.321 61.872 8.9135-30.81 5.3615-48.231 1.7125-58.568-11.353z" fill="#cc7c1c" opacity=".4944"/>
 </g>
</svg>
