<?xml version='1.0' encoding='utf-8'?>
<svg xmlns="http://www.w3.org/2000/svg" version="1.1" x="0px" y="0px" viewBox="0 0 1920 1080" style="enable-background:new 0 0 1920 1080;"> <style type="text/css"> .st0{fill:url(#SVGID_1_);} .st1{fill:url(#SVGID_2_);} .st2{fill:url(#SVGID_3_);} .st3{fill:url(#SVGID_4_);} .st4{fill:url(#SVGID_5_);} .st5{fill:url(#SVGID_6_);} .st6{fill:url(#SVGID_7_);} .st7{fill:url(#SVGID_8_);} .st8{fill:url(#SVGID_9_);} .st9{fill:url(#SVGID_10_);} .st10{fill:url(#SVGID_11_);} .st11{fill:url(#SVGID_12_);} </style> <g id="Ebene_1"> <g> <linearGradient id="SVGID_1_" gradientUnits="userSpaceOnUse" x1="233.2718" y1="390.1143" x2="324.6364" y2="390.1143"> <stop offset="0" style="stop-color:#BD460C"/> <stop offset="0.5229" style="stop-color:#D56430"/> <stop offset="0.7678" style="stop-color:#E07241"/> <stop offset="1" style="stop-color:#BE480E"/> </linearGradient> <path class="st0" d="M324.6,406c0,0-40.1-71.3-48.9-56.2c-8.8,15.1-49.1,59.2-41.5,73c7.6,13.8,75.3,8.7,75.3,8.7L324.6,406z"/> <linearGradient id="SVGID_2_" gradientUnits="userSpaceOnUse" x1="1649.2217" y1="415.4053" x2="1746.0035" y2="415.4053"> <stop offset="0" style="stop-color:#BD460C"/> <stop offset="0.5229" style="stop-color:#D56430"/> <stop offset="0.7678" style="stop-color:#E07241"/> <stop offset="1" style="stop-color:#BE480E"/> </linearGradient> <path class="st1" d="M1649.2,432.5c0,0,40.2-71.3,51.5-55c11.3,16.4,62.9,70.5,39,70.5s-82.3,7.7-82.3,7.7L1649.2,432.5z"/> <linearGradient id="SVGID_3_" gradientUnits="userSpaceOnUse" x1="962.5884" y1="733.7541" x2="984.0261" y2="291.8819"> <stop offset="0" style="stop-color:#BD460C"/> <stop offset="0.5229" style="stop-color:#D56430"/> <stop offset="0.7678" style="stop-color:#E07241"/> <stop offset="1" style="stop-color:#BE480E"/> </linearGradient> <path class="st2" d="M985.2,410.8c230.4,0,360.7-85,507.9-85s152.9,103.9,168.1,139.7s7.6,166.2-96.3,211.5 c-103.9,45.3-219,86.9-564.6,92.5s-539.1-47-658.1-141.4c-104.1-82.6-51.4-198.4-26-237c3.6-5.5,6.7-9.5,8.7-11.5 c18.8-19.4,69.3-76.5,148.6-68.9S745.4,410.8,985.2,410.8z"/> <radialGradient id="SVGID_4_" cx="489.3742" cy="390.1143" r="66.2479" gradientUnits="userSpaceOnUse"> <stop offset="0.293" style="stop-color:#F1F1F1;stop-opacity:0.3"/> </radialGradient> <path class="st3" d="M505.1,352.2c57.9,17.6,80.6,70.8,56.6,80.1c-23.9,9.3-88.1-1.2-107-11.7s-60.4-34.4-42.8-62.1 C429.5,330.8,505.1,352.2,505.1,352.2z"/> <radialGradient id="SVGID_5_" cx="752.2863" cy="456.6378" r="49.7735" gradientUnits="userSpaceOnUse"> <stop offset="0.293" style="stop-color:#F1F1F1;stop-opacity:0.3"/> </radialGradient> <path class="st4" d="M761.6,429.5c37.8,4.9,60.4,13.7,54.1,35.1c-6.3,21.4-47.8,20.8-69.2,19.8s-67.8-11-57.2-36.8 C699.9,421.8,761.6,429.5,761.6,429.5z"/> <radialGradient id="SVGID_6_" cx="991.9743" cy="475.7502" r="44.5363" gradientUnits="userSpaceOnUse"> <stop offset="0.293" style="stop-color:#F1F1F1;stop-opacity:0.3"/> </radialGradient> <path class="st5" d="M998.2,448.4c40.3-0.6,49.1,4.4,50.4,22s-11.3,34-50.4,32.7c-39-1.3-62.9,1.9-62.9-17.9 S998.2,448.4,998.2,448.4z"/> <radialGradient id="SVGID_7_" cx="1207.2072" cy="456.6378" r="42.7126" gradientUnits="userSpaceOnUse"> <stop offset="0.293" style="stop-color:#F1F1F1;stop-opacity:0.3"/> </radialGradient> <path class="st6" d="M1201.8,436.5c32.7-3.3,52.9-8,60.4,12.6s-36.5,30.5-60.4,30.6c-23.9,0.1-49.1-2.5-50.4-17.6 C1150.1,447,1201.8,436.5,1201.8,436.5z"/> <radialGradient id="SVGID_8_" cx="1425.7598" cy="401.7269" r="67.2619" gradientUnits="userSpaceOnUse"> <stop offset="0.293" style="stop-color:#F1F1F1;stop-opacity:0.3"/> </radialGradient> <path class="st7" d="M1404.4,367.4c42.8-24,83.1-17.2,99.4,0.4c16.4,17.6-41.5,59.5-64.2,70c-22.7,10.5-79.3,23-93.2,3.5 C1332.7,422,1404.4,367.4,1404.4,367.4z"/> <linearGradient id="SVGID_9_" gradientUnits="userSpaceOnUse" x1="652.7816" y1="346.592" x2="652.7816" y2="435.4187"> <stop offset="0" style="stop-color:#000000;stop-opacity:0.6"/> <stop offset="1" style="stop-color:#000000;stop-opacity:0.4"/> </linearGradient> <path class="st8" d="M625.9,444.1c-4.4,20.4-11.3,132.2,0,79.3s59.9-154.8,59.9-154.8l-32.7-8.7 C653.1,359.9,635.9,398.2,625.9,444.1z"/> <linearGradient id="SVGID_10_" gradientUnits="userSpaceOnUse" x1="880.8512" y1="346.592" x2="880.8512" y2="435.4187"> <stop offset="0" style="stop-color:#000000;stop-opacity:0.6"/> <stop offset="1" style="stop-color:#000000;stop-opacity:0.4"/> </linearGradient> <path class="st9" d="M866.8,405.8c0,0-8.9,34.7-11.3,64.9c-2.1,26.4,5.7,164.3,17,92.5c11.3-71.8,34-154.4,34-154.4L866.8,405.8z"/> <linearGradient id="SVGID_11_" gradientUnits="userSpaceOnUse" x1="1102.809" y1="346.592" x2="1102.809" y2="435.4187"> <stop offset="0" style="stop-color:#000000;stop-opacity:0.6"/> <stop offset="1" style="stop-color:#000000;stop-opacity:0.4"/> </linearGradient> <path class="st10" d="M1077.4,407.6c0,0,2.8,45.9,12.2,77.8c7.2,24.2,41,89.7,38.4,72.3c-7.5-50.2-8.6-155.9-8.6-155.9 L1077.4,407.6z"/> <linearGradient id="SVGID_12_" gradientUnits="userSpaceOnUse" x1="1303.5597" y1="346.592" x2="1303.5597" y2="435.4187"> <stop offset="0" style="stop-color:#000000;stop-opacity:0.6"/> <stop offset="1" style="stop-color:#000000;stop-opacity:0.4"/> </linearGradient> <path class="st11" d="M1279.6,367.6c0,0,7.5,51.8,19.7,88.8c12.6,38.3,34,128.7,26.4,43.2s1.8-144.8,1.8-144.8L1279.6,367.6z"/> </g> </g> <g id="Ebene_2"> </g> </svg>